<svg version="1.1" xmlns="http://www.w3.org/2000/svg">
    <defs>
        <symbol id="book" viewBox="0 0 40 40">
            <g transform="translate(8 6)">
              <path d="M21.744 25.906a.169.169 0 0 1-.029.094H4.758c-.149 0-.293-.02-.36-.03a3.177 3.177 0 0 1-1.674-1.06 2.425 2.425 0 0 1-.416-1.359 2.452 2.452 0 0 1 2.45-2.449h16.986v4.804zM2 5.151c0-1.738 1.448-3.15 3.228-3.15h16.308c.114 0 .208.082.208.185v16.916H4.758c-.286 0-.565.033-.836.084-.088.017-.17.046-.257.068a4.374 4.374 0 0 0-.528.164c-.095.037-.185.081-.276.125a4.278 4.278 0 0 0-.7.411c-.052.038-.11.068-.16.108V5.152zM21.536.001H5.228C2.346 0 0 2.31 0 5.15v17.79c0 1.135.383 2.221 1.108 3.142l.002.004c.71.9 1.672 1.528 2.857 1.835.294.053.545.078.791.078h17.244c.131 0 .26-.026.381-.075a2.181 2.181 0 0 0 1.361-2.019V2.186C23.744.98 22.754 0 21.536 0z"/>
            </g>
        </symbol>

        <symbol id="report" viewBox="0 0 40 40">
            <g transform="translate(7 7)">
                <path d="M22.219 17.653a.928.928 0 0 1-.929.929H9.037a.928.928 0 1 1 0-1.857H21.29c.514 0 .929.416.929.928zm0-4.881a.928.928 0 0 1-.929.928H9.037a.928.928 0 1 1 0-1.857H21.29c.514 0 .929.416.929.929zm0-4.882a.928.928 0 0 1-.929.929H9.037a.928.928 0 1 1 0-1.857H21.29c.514 0 .929.416.929.928zm1.39 15.453a.8.8 0 0 1-.799.8H6.126c.223-.44.36-.929.36-1.453V6.59c0-.005.004-.009.004-.015V2.638c0-.43.35-.78.78-.78h15.54a.8.8 0 0 1 .8.799v20.686zM1.858 6.742H4.63V22.69c0 .764-.623 1.386-1.388 1.386-.138 0-.27-.027-.397-.066a1.63 1.63 0 0 1-.988-1.496V6.742zM22.81 0H7.27a2.64 2.64 0 0 0-2.638 2.638v1.058l-.002.013v1.175H1.683C.756 4.884 0 5.64 0 6.568v15.946c0 .04.01.077.012.117-.002.02-.012.037-.012.059 0 1.393.887 2.573 2.122 3.03.42.18.88.28 1.364.28H22.81a2.66 2.66 0 0 0 2.657-2.657V2.657A2.66 2.66 0 0 0 22.81 0z"/>
            </g>
        </symbol>

        <symbol id="exclamation" viewBox="0 0 24 24">
            <path d="M12,0 C18.6276104,0 24,5.233121 24,11.6883117 C24,18.1435024 18.6278354,23.3766234 12,23.3766234 C5.3728959,23.3766234 0,18.1435024 0,11.6883117 C0,5.233121 5.3728959,0 12,0 Z M11.9611986,5.24537979 C11.1045575,5.24537979 10.4563902,5.69243206 10.4563902,6.41452265 L10.4563902,13.0376028 C10.4563902,13.760446 11.1044739,14.205993 11.9611986,14.205993 C12.7969338,14.205993 13.466007,13.7417979 13.466007,13.0376028 L13.466007,6.41452265 C13.4659233,5.70957491 12.7969338,5.24537979 11.9611986,5.24537979 Z M11.9611986,15.6980906 C11.1381742,15.6980906 10.4683484,16.3679164 10.4683484,17.1916098 C10.4683484,18.0138815 11.1381742,18.6837073 11.9611986,18.6837073 C12.784223,18.6837073 13.4532962,18.0138815 13.4532962,17.1916098 C13.4532125,16.3678328 12.784223,15.6980906 11.9611986,15.6980906 Z"/>
        </symbol>

        <symbol id="add" viewBox="0 0 24 24">
            <path d="M13,11 L19,11 C19.5522847,11 20,11.4477153 20,12 C20,12.5522847 19.5522847,13 19,13 L13,13 L13,19 C13,19.5522847 12.5522847,20 12,20 C11.4477153,20 11,19.5522847 11,19 L11,13 L5,13 C4.44771525,13 4,12.5522847 4,12 C4,11.4477153 4.44771525,11 5,11 L11,11 L11,5 C11,4.44771525 11.4477153,4 12,4 C12.5522847,4 13,4.44771525 13,5 L13,11 Z"/>
        </symbol>

        <symbol id="clock" viewBox="0 0 24 24">
            <defs>
                <path id="clock-path" d="M12,24 C5.37272727,24 0,18.6272727 0,12 C0,5.37272727 5.37272727,0 12,0 C18.6272727,0 24,5.37272727 24,12 C24,18.6272727 18.6272727,24 12,24 Z M12,21.8181818 C15.5076986,21.8181819 18.7489457,19.946847 20.502795,16.909091 C22.2566443,13.8713349 22.2566443,10.1286651 20.502795,7.09090905 C18.7489457,4.053153 15.5076986,2.18181813 12,2.18181818 C6.57756799,2.1818183 2.18181839,6.57756799 2.18181839,12 C2.18181839,17.422432 6.57756799,21.8181817 12,21.8181818 Z M13.0909091,5.45454545 L13.0909091,11.5483636 L16.044,14.5014545 C16.4574242,14.9295042 16.4515117,15.6099107 16.0307112,16.0307112 C15.6099107,16.4515117 14.9295042,16.4574242 14.5014545,16.044 L11.2287273,12.7712727 C11.024128,12.5667352 10.9091527,12.2893034 10.9090909,12 L10.9090909,5.45454545 C10.9090909,4.852053 11.3975075,4.36363636 12,4.36363636 C12.6024925,4.36363636 13.0909091,4.852053 13.0909091,5.45454545 Z" />
            </defs>
            <g stroke="none" stroke-width="1" fill="none" fill-rule="evenodd">
                <g id="clock">
                    <g fill="#000000" fill-rule="nonzero">
                        <path id="clock-ghost" d="M12,24 C5.37272727,24 0,18.6272727 0,12 C0,5.37272727 5.37272727,0 12,0 C18.6272727,0 24,5.37272727 24,12 C24,18.6272727 18.6272727,24 12,24 Z M12,21.8181818 C15.5076986,21.8181819 18.7489457,19.946847 20.502795,16.909091 C22.2566443,13.8713349 22.2566443,10.1286651 20.502795,7.09090905 C18.7489457,4.053153 15.5076986,2.18181813 12,2.18181818 C6.57756799,2.1818183 2.18181839,6.57756799 2.18181839,12 C2.18181839,17.422432 6.57756799,21.8181817 12,21.8181818 Z M13.0909091,5.45454545 L13.0909091,11.5483636 L16.044,14.5014545 C16.4574242,14.9295042 16.4515117,15.6099107 16.0307112,16.0307112 C15.6099107,16.4515117 14.9295042,16.4574242 14.5014545,16.044 L11.2287273,12.7712727 C11.024128,12.5667352 10.9091527,12.2893034 10.9090909,12 L10.9090909,5.45454545 C10.9090909,4.852053 11.3975075,4.36363636 12,4.36363636 C12.6024925,4.36363636 13.0909091,4.852053 13.0909091,5.45454545 Z" />
                    </g>
                    <g>
                        <mask id="clock-mask" fill="white">
                            <use xlink:href="#clock-path"/>
                        </mask>
                        <g id="clock-ghost"/>
                        <g mask="url(#clock-mask)" fill="#383435" fill-rule="nonzero">
                            <g transform="translate(-1.090909, -1.090909)" >
                                <polygon points="0 0 26.1818182 0 26.1818182 26.1818182 0 26.1818182"/>
                            </g>
                        </g>
                    </g>
                </g>
            </g>
        </symbol>

        <symbol id="warning" viewBox="0 0 28 28">
            <g stroke="none" stroke-width="1" fill="none" fill-rule="evenodd">
                <g transform="translate(2.000000, 2.000000)">
                    <path d="M12,23.8461538 C18.5424615,23.8461538 23.8461538,18.5424615 23.8461538,12 C23.8461538,5.45753846 18.5424615,0.153846154 12,0.153846154 C5.45753846,0.153846154 0.153846154,5.45753846 0.153846154,12 C0.153846154,18.5424615 5.45753846,23.8461538 12,23.8461538 Z" id="warning-path" stroke="#3E268F" stroke-width="3"/>
                    <path d="M13.4590769,17.9572308 L13.4590769,11.8784615 C13.4590769,11.0390769 12.8058462,10.3584615 12,10.3584615 C11.1941538,10.3584615 10.5409231,11.0390769 10.5409231,11.8784615 L10.5409231,17.9569231 C10.5409231,18.7963077 11.1941538,19.4769231 12,19.4769231 C12.8058462,19.4769231 13.4590769,18.7963077 13.4590769,17.9569231 L13.4590769,17.9572308 Z M11.1135385,7.75753846 C11.4289916,8.08064823 11.8938194,8.20917491 12.3304543,8.09402031 C12.7670891,7.97886571 13.1080757,7.63781994 13.2231546,7.20116511 C13.3382334,6.76451028 13.209626,6.29970471 12.8864615,5.98430769 C12.3951113,5.50476742 11.6094669,5.50957964 11.1240278,5.99510292 C10.6385888,6.48062621 10.6339129,7.26627146 11.1135385,7.75753846 Z" id="warning-path" fill="#3E268F" fill-rule="nonzero"/>
                </g>
            </g>
        </symbol>

        <symbol id="calendar-check" viewBox="0 0 56 58">
            <path d="M49.424 39.416a1.733 1.733 0 0 0-2.474 0l-6.187 6.26-3.713-3.756a1.734 1.734 0 0 0-2.474 0 1.785 1.785 0 0 0 0 2.504l4.95 5.01a1.734 1.734 0 0 0 2.474 0l7.424-7.514a1.785 1.785 0 0 0 0-2.504zM28 28.699h7v-7.085h-7V28.7zM3.5 42.515V18.072H42v7.085h3.5V11.34c0-2.152-1.695-3.895-3.79-3.895h-1.46v1.771c0 1.95-1.569 3.542-3.5 3.542-1.93 0-3.5-1.591-3.5-3.542V7.446h-21v1.771c0 1.95-1.569 3.542-3.5 3.542-1.93 0-3.5-1.591-3.5-3.542V7.446H3.792C1.697 7.446 0 9.189 0 11.34v31.174c0 2.145 1.697 3.895 3.792 3.895H24.5v-3.543H3.792c-.158 0-.292-.166-.292-.352zm14-3.19h7v-7.084h-7v7.084zm0-10.626h7v-7.085h-7V28.7zM7 39.325h7v-7.084H7v7.084zM7 28.7h7v-7.085H7V28.7zm45.5 14.168c0-5.859-4.71-10.626-10.5-10.626s-10.5 4.767-10.5 10.626c0 5.86 4.71 10.627 10.5 10.627s10.5-4.767 10.5-10.627zm3.5 0c0 7.825-6.268 14.17-14 14.17-7.731 0-14-6.345-14-14.17 0-7.824 6.269-14.168 14-14.168 7.732 0 14 6.344 14 14.168zM36.75 10.988a1.76 1.76 0 0 0 1.75-1.77V2.132A1.76 1.76 0 0 0 36.75.36 1.76 1.76 0 0 0 35 2.133v7.084a1.76 1.76 0 0 0 1.75 1.771zM7 9.217V2.133C7 1.153 7.783.36 8.75.36s1.75.792 1.75 1.772v7.084a1.76 1.76 0 0 1-1.75 1.77A1.76 1.76 0 0 1 7 9.218z"/>
        </symbol>

        <symbol id="locker" viewBox="0 0 16 16">
            <path d="M12.195 5.907h-1.141V4.385a4.185 4.185 0 1 0-8.371 0v1.522H1.54C.911 5.907.4 6.418.4 7.05v7.61c0 .63.511 1.141 1.141 1.141h10.654c.63 0 1.142-.511 1.142-1.141v-7.61c0-.63-.511-1.142-1.142-1.142zm-8.37-1.522a3.044 3.044 0 0 1 6.087 0v1.522H3.824V4.385zm8.37 10.274H1.541v-7.61h10.654v7.61zM7.06 12.756a1.712 1.712 0 1 0 0-3.424 1.712 1.712 0 0 0 0 3.424zm0-2.283a.57.57 0 1 1 0 1.142.57.57 0 0 1 0-1.142z"/>
        </symbol>

        <symbol id="check-circle" viewBox="0 0 186 186">
            <path d="M92.7010222,0 C41.7783556,0 0.114355556,41.7149778 0.114355556,92.7010222 C0.114355556,143.687067 41.7783556,185.402044 92.7010222,185.402044 C143.623689,185.402044 185.287689,143.687067 185.287689,92.7010222 C185.287689,41.7149778 143.623689,0 92.7010222,0 Z M92.7010222,173.813556 C48.1436889,173.813556 11.6876889,137.312089 11.6876889,92.7010222 C11.6876889,48.0899556 48.1436889,11.5871111 92.7010222,11.5871111 C137.258356,11.5871111 173.714356,48.0885778 173.714356,92.6996444 C173.714356,137.310711 137.258356,173.813556 92.7010222,173.813556 Z"></path>
            <path d="M129.157022,65.4692444 L81.1276889,113.557822 L56.8236889,89.2248889 C54.5090222,86.9074667 51.0370222,86.9074667 48.7223556,89.2248889 C46.4076889,91.5423111 46.4076889,95.0184444 48.7223556,97.3358667 L77.0770222,125.724978 C78.2343556,126.883689 79.3916889,127.463733 81.1276889,127.463733 C82.8636889,127.463733 84.0210222,126.883689 85.1783556,125.724978 L137.258356,73.5816 C139.573022,71.2641778 139.573022,67.7880444 137.258356,65.4706222 C134.943689,63.1518222 131.471689,63.1518222 129.157022,65.4692444 Z"></path>
        </symbol>
        <symbol id="off" viewBox="0 0 40 40">
            <g transform="translate(6 7)">
                <path d="M27.707 12.556l-3.366-3.367a1 1 0 0 0-1.414 1.414l1.659 1.66H9.57a1 1 0 0 0 0 2h15.016l-1.659 1.659a.999.999 0 1 0 1.414 1.414l3.366-3.366a.999.999 0 0 0 0-1.414m-4.548 8.019a1 1 0 0 1 .095 1.41 13.27 13.27 0 0 1-9.991 4.54C5.949 26.525 0 20.575 0 13.263 0 5.95 5.949 0 13.263 0c3.786 0 7.4 1.624 9.916 4.456a1 1 0 0 1-1.494 1.329A11.279 11.279 0 0 0 13.263 2C7.053 2 2 7.053 2 13.263s5.053 11.262 11.263 11.262c3.251 0 6.343-1.405 8.485-3.856a.998.998 0 0 1 1.411-.094"/>
            </g>
        </symbol>
        <!-- ICONOS CON PADDING -->
        <symbol id="calendar" viewBox="0 0 40 40">
            <g fill-rule="evenodd" transform="translate(7 7)">
                <path id="a" d="M23.539 24.762H2.46c-.674 0-1.222-.55-1.222-1.223V10.323h23.524V23.54c0 .674-.55 1.223-1.223 1.223M2.46 3.028h4.548V4.03a.618.618 0 1 0 1.238 0v-1h9.507v1a.619.619 0 1 0 1.238 0v-1h4.548c.674 0 1.223.547 1.223 1.221v4.835H1.238V4.25c0-.674.548-1.222 1.222-1.222M23.54 1.79H18.99V.62a.618.618 0 1 0-1.238 0V1.79H8.246V.62a.618.618 0 1 0-1.238 0V1.79H2.46A2.463 2.463 0 0 0 0 4.25V23.54A2.463 2.463 0 0 0 2.46 26H23.54A2.464 2.464 0 0 0 26 23.539V4.25a2.464 2.464 0 0 0-2.461-2.46"/>
            </g>
        </symbol>

        <symbol id="navigation-arrow" viewBox="0 0 24 24">
            <path d="M15.428 20.228a.641.641 0 0 0 .906-.907l-6.84-6.84 6.84-6.602a.641.641 0 0 0-.906-.907L7.8 12.48l7.628 7.748z"/>
        </symbol>

        <symbol id="users" viewBox="0 0 24 24">
            <path d="M16.64 12.252c1.79 0 3.246 1.51 3.246 3.366v1.28c0 .445-.349.808-.778.808-.43 0-.779-.363-.779-.808v-1.28c0-.964-.758-1.75-1.688-1.75h-4.934c-.93 0-1.688.786-1.688 1.75v1.28c0 .445-.349.808-.778.808-.43 0-.779-.363-.779-.808v-1.28c0-1.856 1.456-3.366 3.245-3.366h4.934zm-2.7-.895c-1.855 0-3.364-1.415-3.364-3.156 0-1.74 1.51-3.155 3.364-3.155 1.857 0 3.367 1.415 3.367 3.155 0 1.741-1.51 3.156-3.367 3.156zm-1.75-3.156c0 .904.786 1.64 1.75 1.64.966 0 1.75-.736 1.75-1.64 0-.904-.784-1.64-1.75-1.64-.964 0-1.75.736-1.75 1.64zM8.664 12.4l-.1.084c-.446.367-.8.81-1.056 1.318l-.01.022-.024.005a1.894 1.894 0 0 0-1.606 1.875v1.304a.699.699 0 0 1-1.397 0v-1.304A3.309 3.309 0 0 1 7.776 12.4h.887zm1.515-.812c-1.85 0-3.354-1.478-3.354-3.294S8.328 5 10.178 5c.246 0 .503.033.786.1l.095.022-.077.06c-.427.333-.78.742-1.045 1.214l-.011.02-.024.004c-.946.134-1.66.939-1.66 1.874 0 .92.67 1.706 1.594 1.868l.024.004.01.021c.25.48.59.901 1.01 1.252l.074.062-.096.02c-.221.045-.45.067-.68.067z"/>
        </symbol>

        <symbol id="paper-pencil" viewBox="0 0 24 24">
            <g transform="translate(5 4)">
                <path d="M12 14.91V8h1.09v6.91A1.09 1.09 0 0 1 12 16H1.09A1.09 1.09 0 0 1 0 14.91V1.09C0 .489.488 0 1.09 0h6.183v1.09H1.09v13.82H12zm1.862-13.55v.004a1.09 1.09 0 0 1 0 1.541s-5.96 6.153-6.324 6.248l-1.09.272a1.09 1.09 0 0 1-1.324-1.323l.272-1.091C5.487 6.644 11.55.589 11.55.589a1.09 1.09 0 0 1 1.542 0l.77.771zM7.97 7.25l5.12-5.115-.771-.771-5.12 5.12.025.021.746.746z"/>
            </g>
        </symbol>

        <symbol id="close" viewBox="0 0 24 24">
            <g transform="translate(4 4)">
                <path d="M9.242 8.018l6.555-6.683A.774.774 0 0 0 14.692.25L8.148 6.924 1.335.24A.774.774 0 1 0 .25 1.345l6.802 6.673-6.802 6.674a.774.774 0 0 0 1.084 1.104l6.813-6.684 6.544 6.674a.774.774 0 0 0 1.105-1.084L9.242 8.018z"/>
            </g>
        </symbol>

        <symbol id="add-circle" viewBox="0 0 40 40">
            <g fill-rule="evenodd" transform="translate(7 7)">
                <path d="M13 0C5.82 0 0 5.82 0 13s5.82 13 13 13 13-5.82 13-13S20.18 0 13 0zm0 24.227C6.8 24.227 1.773 19.201 1.773 13 1.773 6.8 6.799 1.773 13 1.773c6.2 0 11.227 5.026 11.227 11.227A11.227 11.227 0 0 1 13 24.227zm4.727-11.818h-3.545V8.864a.886.886 0 0 0-1.773 0v3.545H8.864a.886.886 0 1 0 0 1.773h3.545v3.545a.886.886 0 1 0 1.773 0v-3.545h3.545a.886.886 0 0 0 0-1.773z"/>
            </g>
        </symbol>

        <symbol id="search" viewBox="0 0 24 24">
            <path d="M19.835 19.783l-3.794-3.772a7.045 7.045 0 1 0-.944.796l3.867 3.867a.616.616 0 0 0 .87-.87v-.02zM5.339 11.084a5.747 5.747 0 1 1 11.495 0 5.747 5.747 0 0 1-11.495 0z"/>
        </symbol>

        <symbol id="eye" viewBox="0 0 24 24">
            <g transform="translate(4 8)">
                <path d="M13.204 5.788a9.735 9.735 0 0 1-1.885 1.077 4.123 4.123 0 0 0 .852-2.497 4.134 4.134 0 0 0-1.06-2.75 9.58 9.58 0 0 1 2.093 1.158 10.424 10.424 0 0 1 1.665 1.506c-.289.328-.856.918-1.665 1.506M1.131 4.282c.288-.328.856-.918 1.664-1.506A9.645 9.645 0 0 1 4.89 1.618a4.138 4.138 0 0 0-1.06 2.75c0 .94.324 1.798.851 2.497a9.727 9.727 0 0 1-1.884-1.077 10.379 10.379 0 0 1-1.665-1.506M9.266 7.46c-.42.067-.843.103-1.266.103-.423 0-.846-.036-1.266-.103A3.342 3.342 0 0 1 8 1.024 3.342 3.342 0 1 1 9.266 7.46m6.622-3.516c-.032-.041-.764-1.009-2.095-1.977C12.023.68 10.02 0 8 0S3.976.68 2.207 1.967C.877 2.935.143 3.903.113 3.944a.561.561 0 0 0 0 .676c.03.04.763 1.008 2.094 1.977C3.977 7.883 5.98 8.563 8 8.563s4.023-.68 5.793-1.966c1.331-.97 2.063-1.936 2.095-1.977a.567.567 0 0 0 0-.676"/>
            </g>
        </symbol>

        <symbol id="microphone-on" viewBox="0 0 24 24">
            <path d="M16.7 18.71a9.015 9.015 0 0 1-7.31 5.443V26h2.69a1 1 0 1 1 0 2H4.7a1 1 0 1 1 0-2h2.69v-1.847A9.015 9.015 0 0 1 .08 18.71a1 1 0 1 1 1.842-.781 7.024 7.024 0 0 0 6.468 4.299 7.024 7.024 0 0 0 6.469-4.299 1.006 1.006 0 0 1 1.312-.531 1 1 0 0 1 .53 1.312zM3.62 6.771A4.776 4.776 0 0 1 8.39 2a4.776 4.776 0 0 1 4.77 4.771v6.496c0 2.63-2.14 4.77-4.77 4.77-2.63 0-4.77-2.14-4.77-4.77V6.771zm4.77 13.266a6.778 6.778 0 0 0 6.77-6.77V6.771A6.778 6.778 0 0 0 8.39 0a6.778 6.778 0 0 0-6.77 6.771v6.496a6.778 6.778 0 0 0 6.77 6.77z"/>
        </symbol>

        <symbol id="camera-on" viewBox="0 0 24 24">
            <path d="M24 10.415c0 .413-.288.639-.412.717a1.007 1.007 0 0 1-.976.052L19.317 9.59a.857.857 0 0 1-.505-.767V5.137c0-.323.195-.618.507-.769l3.292-1.592a1.016 1.016 0 0 1 .978.054c.123.078.411.303.411.715v6.87zm-7.376.649c0 .955-.776 1.73-1.73 1.73H3.73c-.954 0-1.73-.775-1.73-1.73V3.73C2 2.776 2.776 2 3.73 2h11.164c.954 0 1.73.776 1.73 1.73v7.334zm8.028-9.927a2.99 2.99 0 0 0-2.911-.161l-3.294 1.592-.008.003A3.736 3.736 0 0 0 14.894 0H3.73A3.735 3.735 0 0 0 0 3.73v7.334a3.735 3.735 0 0 0 3.73 3.73h11.164c1.92 0 3.507-1.46 3.709-3.328l3.138 1.518a2.996 2.996 0 0 0 2.909-.158A2.84 2.84 0 0 0 26 10.415v-6.87c0-.978-.504-1.878-1.348-2.408z"/>
        </symbol>

        <symbol id="volume" viewBox="0 0 24 24">
            <path d="M12.72 2.603l-6.651 5.54c-.014.013-.031.02-.045.032v7.214c.044.03.09.058.133.093l6.563 5.468V2.603zM2 15.018h2.024V8.607H2v6.41zM14.72 1.68v20.192c0 1.049-.586 1.437-.84 1.556a1.365 1.365 0 0 1-.57.12c-.315 0-.72-.103-1.164-.474l-7.27-6.056H1.759a1.758 1.758 0 0 1-1.76-1.76V8.365c0-.968.787-1.757 1.76-1.757h3.029L12.146.479c.445-.373.85-.48 1.167-.48.258 0 .456.072.568.125.253.118.839.505.839 1.556zm4.934 10.12a4.277 4.277 0 0 0-2.76-3.984 1.001 1.001 0 0 0-.703 1.873 2.266 2.266 0 0 1 1.463 2.11 2.25 2.25 0 0 1-1.376 2.077 1 1 0 1 0 .779 1.842 4.249 4.249 0 0 0 2.597-3.918z"/>
        </symbol>

        <symbol id="mini-video" viewBox="0 0 40 40">
            <g fill-rule="evenodd" transform="translate(7 7)">
                <path id="mini-video-path_1" d="M8.068 21.465h13.235v-9.26H8.068v9.26zM2 24h22V2H2v22zM24.07 0H1.93C.869 0 0 .869 0 1.93v22.14C0 25.132.869 26 1.93 26h22.14c1.061 0 1.93-.868 1.93-1.93V1.93C26 .869 25.131 0 24.07 0z"/>
                <mask id="mini-video-mask_1" fill="#fff"></mask>
                <g mask="url(#mini-video-mask_1)">
                    <path d="M-7-7h40v40H-7z"/>
                </g>
            </g>
        </symbol>

        <symbol id="call" viewBox="0 0 24 24">
            <path d="M14.001 5.768c1.51 0 3.02.258 4.456.774.398.144.662.52.662.942V9.96c0 .455.37.827.824.827h5.231A.828.828 0 0 0 26 9.96a5.961 5.961 0 0 0-2.468-4.826C17.741.965 10.259.963 4.47 5.135A5.957 5.957 0 0 0 2 9.96c0 .455.371.827.826.827h5.231a.827.827 0 0 0 .824-.827V7.483c0-.421.265-.798.662-.941a13.199 13.199 0 0 1 4.458-.774m11.173 7.02h-5.231a2.829 2.829 0 0 1-2.824-2.828V8.21a11.232 11.232 0 0 0-6.238 0v1.75a2.829 2.829 0 0 1-2.824 2.827H2.826A2.83 2.83 0 0 1 0 9.96a7.96 7.96 0 0 1 3.301-6.449c6.498-4.682 14.899-4.68 21.399 0a7.963 7.963 0 0 1 3.3 6.45 2.83 2.83 0 0 1-2.826 2.826"/>
        </symbol>

        <symbol id="fullscreen" viewBox="0 0 40 40">
            <g fill-rule="evenodd" transform="translate(7 7)">
                <path id="fullscreen-path_1" d="M13.907 12.107a1 1 0 0 1-.01-1.414l4.604-4.67h-2.578a1 1 0 1 1 0-2h4.334c.95 0 1.725.775 1.725 1.727v4.49a1 1 0 1 1-2 0V7.37l-4.661 4.727a.998.998 0 0 1-1.414.01zm-9.747 8.17v-4.491a1 1 0 1 1 2 0v2.87l4.66-4.727a1 1 0 0 1 1.424 1.405L7.64 20.003h2.579a1 1 0 1 1 0 2H5.885a1.727 1.727 0 0 1-1.725-1.725zM2 24.002h22V2H2v22zM24.07 0H1.93C.869 0 0 .869 0 1.93v22.14C0 25.13.869 26 1.93 26h22.14c1.062 0 1.93-.87 1.93-1.93V1.93A1.935 1.935 0 0 0 24.07 0z"/>
                <mask id="fullscreen-mask_1" fill="#fff"></mask>
                <g mask="url(#fullscreen-mask_1)">
                    <path d="M-7-7h40v40H-7z"/>
                </g>
            </g>
        </symbol>

        <symbol id="upload" viewBox="0 0 40 40">
            <g transform="translate(7 7)">
                <path d="M10.207 5.073l1.659-1.659v13.314a1 1 0 1 0 2 0V3.414l1.659 1.66a1 1 0 0 0 1.414-1.415L13.573.293a.999.999 0 0 0-1.414 0L8.793 3.66a.999.999 0 1 0 1.414 1.414m15.525 7.456v10.868a3.113 3.113 0 0 1-3.11 3.11H3.11A3.113 3.113 0 0 1 0 23.397V12.53a1 1 0 1 1 2 0v10.868c0 .612.498 1.11 1.11 1.11h19.512c.612 0 1.11-.498 1.11-1.11V12.53a1 1 0 1 1 2 0"/>
            </g>
        </symbol>

        <symbol id="trash" viewBox="0 0 40 40">
            <g transform="translate(7 7)">
                <path d="M17.345 20.573V9.377a.928.928 0 1 1 1.858 0v11.196a.928.928 0 1 1-1.858 0zm-5.274 0V9.377a.929.929 0 0 1 1.857 0v11.196a.928.928 0 1 1-1.857 0zm-5.351 0V9.377a.928.928 0 1 1 1.857 0v11.196a.928.928 0 1 1-1.857 0zM21.49 21.9c0 .568-.463 1.031-1.031 1.031H5.542A1.034 1.034 0 0 1 4.511 21.9V6.015h16.98V21.9zM9.563 2.766c.276-.56.837-.909 1.462-.909h3.953c.626 0 1.186.349 1.462.91l.687 1.391h-8.25l.686-1.392zm15.51 1.392h-5.876l-1.091-2.213A3.464 3.464 0 0 0 14.977 0h-3.953a3.464 3.464 0 0 0-3.128 1.945l-1.09 2.213H.927a.929.929 0 0 0 0 1.857h1.726V21.9a2.891 2.891 0 0 0 2.888 2.888H20.46a2.892 2.892 0 0 0 2.889-2.888V6.015h1.723a.928.928 0 1 0 0-1.857z"/>
            </g>
        </symbol>

        <symbol id="arrow-down" viewBox="0 0 40 40">
            <g transform="rotate(-90 20.255 20)">
                <path d="M25.713 32.713a1.069 1.069 0 0 0 1.51-1.51L15.823 19.8 27.224 8.798a1.069 1.069 0 0 0-1.51-1.511L13 19.8l12.713 12.913z"/>
            </g>
        </symbol>

        <symbol id="alert" viewBox="0 0 40 40">
            <g transform="translate(7 7)">
                <path d="M13.06 6.295a1.156 1.156 0 1 0 0 2.312 1.156 1.156 0 0 0 0-2.312M24 13c0-6.065-4.934-11-11-11C6.935 2 2 6.935 2 13c0 6.066 4.935 11 11 11 6.066 0 11-4.934 11-11m2 0c0 7.18-5.82 13-13 13S0 20.18 0 13 5.82 0 13 0s13 5.82 13 13m-11.94-2.015v7.834a1 1 0 1 1-2 0v-7.834a1 1 0 1 1 2 0"/>
            </g>
        </symbol>

        <symbol id="check" viewBox="0 0 40 40">
            <path d="M32.606 12.379a1.385 1.385 0 0 0-1.903 0L17.29 25.277 9.265 17.56a1.385 1.385 0 0 0-1.87.032 1.26 1.26 0 0 0-.034 1.798l8.978 8.634a1.385 1.385 0 0 0 1.903 0l14.364-13.814a1.26 1.26 0 0 0 0-1.83z"/>
        </symbol>

        <symbol id="add-contact" viewBox="0 0 40 40">
            <g transform="translate(7 7)" >
                <path d="M18.211 13.537v-2.811a.618.618 0 1 1 1.238 0v2.811h2.811a.618.618 0 1 1 0 1.238h-2.81v2.812a.618.618 0 1 1-1.239 0v-2.812H15.4a.618.618 0 1 1 0-1.238h2.812zm5.069 4.14v5.933A2.392 2.392 0 0 1 20.89 26H2.39A2.392 2.392 0 0 1 0 23.61V17.85a4.289 4.289 0 0 1 4.284-4.283h7.926a.619.619 0 1 1 0 1.238H4.284a3.05 3.05 0 0 0-3.046 3.045v5.759c0 .635.517 1.152 1.152 1.152h18.5c.636 0 1.152-.517 1.152-1.152v-5.932a.62.62 0 0 1 1.238 0zM11.803 1.239a5.016 5.016 0 0 1 5.012 5.01 5.016 5.016 0 0 1-5.012 5.011 5.016 5.016 0 0 1-5.01-5.01 5.016 5.016 0 0 1 5.01-5.01zm0 11.26a6.256 6.256 0 0 0 6.25-6.25A6.256 6.256 0 0 0 11.803 0a6.255 6.255 0 0 0-6.248 6.249 6.255 6.255 0 0 0 6.248 6.248z"/>
            </g>
        </symbol>

        <symbol id="pencil" viewBox="0 0 40 40">
            <g transform="translate(7 7)">
                <path d="M24.644 4.245L21.033.634a2.167 2.167 0 0 0-3.063 0L.636 17.968C-.022 18.626 0 20.222 0 20.222V26l5.778-.722a4.009 4.009 0 0 0 2.167-.723l16.7-17.247a2.167 2.167 0 0 0 0-3.063zM5.778 23.111L2.167 19.5 19.502 2.165l3.61 3.611L5.779 23.111z"/>
            </g>
        </symbol>

        <symbol id="order" viewBox="0 0 40 40">
            <path d="M18.9 13.21c-.01-.306.1-.605.31-.83l5.047-5.046a1.149 1.149 0 0 1 1.04-.31c.375-.065.757.064 1.017.341l4.658 5.046a1.164 1.164 0 0 1-.093 1.646 1.227 1.227 0 0 1-1.693-.062l-3.105-3.276v18.018a1.164 1.164 0 0 1-2.329 0V10.975l-2.958 3.059a1.048 1.048 0 0 1-1.552 0 1.164 1.164 0 0 1-.342-.823zm-4.852 19.766a1.157 1.157 0 0 1-1.071-.35L8.319 27.58A1.172 1.172 0 0 1 8 26.804a1.141 1.141 0 0 1 .35-.854 1.11 1.11 0 0 1 1.599.062l2.927 3.276v-17.63a1.164 1.164 0 0 1 2.329 0v17.483l3.175-2.958a1.289 1.289 0 0 1 1.747 0 1.164 1.164 0 0 1 0 1.646L15.08 32.68c-.275.262-.661.372-1.033.295z"/>
        </symbol>

        <symbol id="user" viewBox="0 0 40 40">
            <g transform="translate(8 6)">
                <path d="M21.948 25.237a.764.764 0 0 1-.764.763H2.762A.763.763 0 0 1 2 25.237v-5.72c.01-.048.014-.095.017-.143a2.643 2.643 0 0 1 2.632-2.52H19.3a2.641 2.641 0 0 1 2.631 2.52c.003.047.01.093.018.138v5.725zm1.966-6.168a4.64 4.64 0 0 0-4.615-4.216H4.65A4.64 4.64 0 0 0 .034 19.07.984.984 0 0 0 0 19.33v5.907A2.766 2.766 0 0 0 2.762 28h18.422a2.767 2.767 0 0 0 2.764-2.763V19.33c0-.09-.012-.177-.034-.26zM12.136 2a4.61 4.61 0 0 1 4.607 4.605 4.612 4.612 0 0 1-4.607 4.606 4.611 4.611 0 0 1-4.605-4.606A4.61 4.61 0 0 1 12.136 2zm0 11.211a6.614 6.614 0 0 0 6.607-6.606A6.614 6.614 0 0 0 12.136 0a6.612 6.612 0 0 0-6.605 6.605 6.613 6.613 0 0 0 6.605 6.606z"/>
            </g>
        </symbol>

        <symbol id="box" viewBox="0 0 40 40">
            <path d="M21.05 30.632l8.624-4.298c.383-.19.626-.58.626-1.005V14.827l-9.25 4.67v11.135zm-2-.095V19.392L10 14.822v10.504c-.003.427.237.819.617 1.01l8.433 4.201zm9.903-17.283L20.65 9.117a1.13 1.13 0 0 0-1 0l-8.3 4.134 8.804 4.402 8.798-4.4zM21.63 7.346l8.84 4.42a3.315 3.315 0 0 1 1.84 2.968v10.53a3.314 3.314 0 0 1-1.838 2.966l-8.84 4.42a3.315 3.315 0 0 1-2.966 0l-8.843-4.422A3.312 3.312 0 0 1 8 25.253v-10.52c0-1.258.713-2.407 1.837-2.966l8.842-4.42a3.315 3.315 0 0 1 2.95 0z"/>
        </symbol>

        <symbol id="medicine" viewBox="0 0 40 40">
            <svg width="40" height="60" viewBox="0 0 31 39">
                <path d="M13.993 10.9245C13.6101 10.7968 13.2759 10.5542 13.0361 10.2298C12.7963 9.90544 12.6625 9.51501 12.6531 9.11184V8.04562H14.551V2.35748C14.551 1.85461 14.351 1.37234 13.9951 1.01677C13.6392 0.661188 13.1564 0.461426 12.6531 0.461426H5.06122C4.55785 0.461426 4.0751 0.661188 3.71916 1.01677C3.36323 1.37234 3.16326 1.85461 3.16326 2.35748V8.04562H5.06122V9.11184C5.05176 9.51501 4.918 9.90544 4.67818 10.2298C4.43837 10.5542 4.10419 10.7968 3.72126 10.9245C2.63091 11.33 1.69042 12.0583 1.02546 13.012C0.360498 13.9658 0.00274297 15.0996 0 16.2618V38.3824H17.7143V16.2618C17.7115 15.0996 17.3538 13.9658 16.6888 13.012C16.0239 12.0583 15.0834 11.33 13.993 10.9245ZM4.42857 2.35748C4.42857 2.18985 4.49522 2.0291 4.61387 1.91057C4.73251 1.79205 4.89343 1.72546 5.06122 1.72546H12.6531C12.8208 1.72546 12.9818 1.79205 13.1004 1.91057C13.2191 2.0291 13.2857 2.18985 13.2857 2.35748V4.25353H4.42857V2.35748ZM4.42857 6.78159V5.51756H13.2857V6.78159H4.42857ZM16.449 19.4219H6.32653V33.3263H13.2857V32.0623H7.59183V20.686H16.449V21.95H12.0204V23.214H16.449V24.4781H12.0204V25.7421H16.449V27.0061H8.85714V28.2702H16.449V29.5342H8.85714V30.7982H16.449V32.0623H14.551V33.3263H16.449V37.1184H1.26531V16.2618C1.26723 15.3577 1.5454 14.4757 2.06263 13.7338C2.57986 12.9919 3.31149 12.4254 4.15969 12.1101C4.78652 11.895 5.33133 11.4913 5.7193 10.9544C6.10727 10.4176 6.31938 9.77393 6.32653 9.11184V8.04562H11.3877V9.11184C11.3949 9.77393 11.607 10.4176 11.995 10.9544C12.3829 11.4913 12.9277 11.895 13.5546 12.1101C14.4028 12.4254 15.1344 12.9919 15.6516 13.7338C16.1689 14.4757 16.447 15.3577 16.449 16.2618V19.4219Z" fill="#1ECD96"/>
                <path d="M2.53064 16.2619H3.79595C3.79671 15.8745 3.91577 15.4966 4.13723 15.1786C4.35869 14.8606 4.672 14.6176 5.03532 14.4822L4.59752 13.2965C3.99173 13.5217 3.46922 13.9264 3.09987 14.4563C2.73051 14.9862 2.53191 15.6162 2.53064 16.2619Z" fill="#1ECD96"/>
                <path d="M2.53064 17.5259H3.79595V35.2223H2.53064V17.5259Z" fill="#1ECD96"/>
            </svg>
        </symbol>

        <symbol id="download">
            <svg width="32" height="35" viewBox="0 0 32 35" fill="none" xmlns="http://www.w3.org/2000/svg">
                <path d="M28.1852 11.0291H22.058C21.3812 11.0291 20.8326 11.5777 20.8326 12.2545C20.8326 12.9313 21.3812 13.48 22.058 13.48H28.1852C28.8621 13.48 29.4107 14.0286 29.4107 14.7055V30.6363C29.4107 31.3131 28.8621 31.8618 28.1852 31.8618H3.67634C2.99952 31.8618 2.45087 31.3131 2.45087 30.6363V14.7054C2.45087 14.0286 2.99952 13.4799 3.67634 13.4799H9.80354C10.4804 13.4799 11.029 12.9313 11.029 12.2545C11.029 11.5776 10.4804 11.0291 9.80354 11.0291H3.67634C1.64595 11.0291 0 12.675 0 14.7054V30.6362C0 32.6666 1.64595 34.3126 3.67634 34.3126H28.1852C30.2156 34.3126 31.8616 32.6666 31.8616 30.6362V14.7054C31.8616 12.675 30.2156 11.0291 28.1852 11.0291Z" fill="white"/>
                <path d="M22.8966 17.5153C22.4217 17.0567 21.6688 17.0567 21.194 17.5153L17.1561 21.5507V1.22547C17.1561 0.54865 16.6075 0 15.9307 0C15.2538 0 14.7052 0.54865 14.7052 1.22547V21.5507L10.6698 17.5153C10.1829 17.0451 9.40717 17.0586 8.937 17.5454C8.47832 18.0203 8.47832 18.7732 8.937 19.2481L15.0642 25.3753C15.5422 25.8544 16.3181 25.8554 16.7973 25.3774C16.798 25.3767 16.7987 25.376 16.7995 25.3753L22.9267 19.2481C23.3969 18.7612 23.3834 17.9855 22.8966 17.5153Z" fill="white"/>
            </svg>
        </symbol>

        <symbol id="upload">
            <svg width="249" height="78" viewBox="0 0 249 78" fill="none" xmlns="http://www.w3.org/2000/svg">
                <g filter="url(#filter0_d)">
                <rect x="10.0869" y="6" width="221.913" height="58" rx="3" fill="#1ECD96"/>
                </g>
                <path d="M71.9005 40.078C71.2245 40.078 70.5745 39.9697 69.9505 39.753C69.3352 39.5363 68.8585 39.2503 68.5205 38.895L68.8975 38.154C69.2269 38.4833 69.6645 38.752 70.2105 38.96C70.7565 39.1593 71.3199 39.259 71.9005 39.259C72.7152 39.259 73.3262 39.1117 73.7335 38.817C74.1409 38.5137 74.3445 38.1237 74.3445 37.647C74.3445 37.283 74.2319 36.9927 74.0065 36.776C73.7899 36.5593 73.5212 36.3947 73.2005 36.282C72.8799 36.1607 72.4335 36.0307 71.8615 35.892C71.1769 35.7187 70.6309 35.554 70.2235 35.398C69.8162 35.2333 69.4652 34.9863 69.1705 34.657C68.8845 34.3277 68.7415 33.8813 68.7415 33.318C68.7415 32.8587 68.8629 32.4427 69.1055 32.07C69.3482 31.6887 69.7209 31.3853 70.2235 31.16C70.7262 30.9347 71.3502 30.822 72.0955 30.822C72.6155 30.822 73.1225 30.8957 73.6165 31.043C74.1192 31.1817 74.5525 31.3767 74.9165 31.628L74.5915 32.395C74.2102 32.1437 73.8029 31.9573 73.3695 31.836C72.9362 31.706 72.5115 31.641 72.0955 31.641C71.2982 31.641 70.6959 31.797 70.2885 32.109C69.8899 32.4123 69.6905 32.8067 69.6905 33.292C69.6905 33.656 69.7989 33.9507 70.0155 34.176C70.2409 34.3927 70.5182 34.5617 70.8475 34.683C71.1855 34.7957 71.6362 34.9213 72.1995 35.06C72.8669 35.2247 73.4042 35.3893 73.8115 35.554C74.2275 35.71 74.5785 35.9527 74.8645 36.282C75.1505 36.6027 75.2935 37.0403 75.2935 37.595C75.2935 38.0543 75.1679 38.4747 74.9165 38.856C74.6739 39.2287 74.2969 39.5277 73.7855 39.753C73.2742 39.9697 72.6459 40.078 71.9005 40.078ZM83.3566 33.162V40H82.4726V38.752C82.2299 39.168 81.8962 39.493 81.4716 39.727C81.0469 39.9523 80.5616 40.065 80.0156 40.065C79.1229 40.065 78.4166 39.818 77.8966 39.324C77.3852 38.8213 77.1296 38.089 77.1296 37.127V33.162H78.0526V37.036C78.0526 37.7553 78.2302 38.3013 78.5856 38.674C78.9409 39.0467 79.4479 39.233 80.1066 39.233C80.8259 39.233 81.3936 39.0163 81.8096 38.583C82.2256 38.141 82.4336 37.53 82.4336 36.75V33.162H83.3566ZM89.4646 33.11C90.106 33.11 90.6866 33.2573 91.2066 33.552C91.7266 33.838 92.134 34.2453 92.4286 34.774C92.7233 35.3027 92.8706 35.905 92.8706 36.581C92.8706 37.257 92.7233 37.8593 92.4286 38.388C92.134 38.9167 91.7266 39.3283 91.2066 39.623C90.6866 39.9177 90.106 40.065 89.4646 40.065C88.8926 40.065 88.377 39.9437 87.9176 39.701C87.467 39.4583 87.103 39.1073 86.8256 38.648V40H85.9416V30.354H86.8646V34.462C87.1506 34.02 87.5146 33.6863 87.9566 33.461C88.4073 33.227 88.91 33.11 89.4646 33.11ZM89.3996 39.246C89.8763 39.246 90.3096 39.1377 90.6996 38.921C91.0896 38.6957 91.393 38.3793 91.6096 37.972C91.835 37.5647 91.9476 37.101 91.9476 36.581C91.9476 36.061 91.835 35.5973 91.6096 35.19C91.393 34.7827 91.0896 34.4707 90.6996 34.254C90.3096 34.0287 89.8763 33.916 89.3996 33.916C88.9143 33.916 88.4766 34.0287 88.0866 34.254C87.7053 34.4707 87.402 34.7827 87.1766 35.19C86.96 35.5973 86.8516 36.061 86.8516 36.581C86.8516 37.101 86.96 37.5647 87.1766 37.972C87.402 38.3793 87.7053 38.6957 88.0866 38.921C88.4766 39.1377 88.9143 39.246 89.3996 39.246ZM100.706 36.867H94.9862C95.0382 37.5777 95.3112 38.154 95.8052 38.596C96.2992 39.0293 96.9232 39.246 97.6772 39.246C98.1019 39.246 98.4919 39.1723 98.8472 39.025C99.2025 38.869 99.5102 38.6437 99.7702 38.349L100.29 38.947C99.9869 39.311 99.6055 39.5883 99.1462 39.779C98.6955 39.9697 98.1972 40.065 97.6512 40.065C96.9492 40.065 96.3252 39.9177 95.7792 39.623C95.2419 39.3197 94.8215 38.9037 94.5182 38.375C94.2149 37.8463 94.0632 37.2483 94.0632 36.581C94.0632 35.9137 94.2062 35.3157 94.4922 34.787C94.7869 34.2583 95.1855 33.8467 95.6882 33.552C96.1995 33.2573 96.7715 33.11 97.4042 33.11C98.0369 33.11 98.6045 33.2573 99.1072 33.552C99.6099 33.8467 100.004 34.2583 100.29 34.787C100.576 35.307 100.719 35.905 100.719 36.581L100.706 36.867ZM97.4042 33.903C96.7455 33.903 96.1909 34.1153 95.7402 34.54C95.2982 34.956 95.0469 35.502 94.9862 36.178H99.8352C99.7745 35.502 99.5189 34.956 99.0682 34.54C98.6262 34.1153 98.0715 33.903 97.4042 33.903ZM106 30.354H106.923V40H106V30.354ZM111.883 33.11C112.776 33.11 113.461 33.3353 113.937 33.786C114.414 34.228 114.652 34.8867 114.652 35.762V40H113.768V38.934C113.56 39.2893 113.253 39.5667 112.845 39.766C112.447 39.9653 111.97 40.065 111.415 40.065C110.653 40.065 110.046 39.883 109.595 39.519C109.145 39.155 108.919 38.674 108.919 38.076C108.919 37.4953 109.127 37.0273 109.543 36.672C109.968 36.3167 110.64 36.139 111.558 36.139H113.729V35.723C113.729 35.1337 113.565 34.6873 113.235 34.384C112.906 34.072 112.425 33.916 111.792 33.916C111.359 33.916 110.943 33.9897 110.544 34.137C110.146 34.2757 109.803 34.4707 109.517 34.722L109.101 34.033C109.448 33.7383 109.864 33.513 110.349 33.357C110.835 33.1923 111.346 33.11 111.883 33.11ZM111.558 39.337C112.078 39.337 112.525 39.22 112.897 38.986C113.27 38.7433 113.547 38.3967 113.729 37.946V36.828H111.584C110.414 36.828 109.829 37.2353 109.829 38.05C109.829 38.4487 109.981 38.765 110.284 38.999C110.588 39.2243 111.012 39.337 111.558 39.337ZM121.446 34.501C121.662 34.0417 121.983 33.695 122.408 33.461C122.841 33.227 123.374 33.11 124.007 33.11V34.007L123.786 33.994C123.066 33.994 122.503 34.215 122.096 34.657C121.688 35.099 121.485 35.7187 121.485 36.516V40H120.562V33.162H121.446V34.501ZM131.568 36.867H125.848C125.9 37.5777 126.173 38.154 126.667 38.596C127.161 39.0293 127.785 39.246 128.539 39.246C128.964 39.246 129.354 39.1723 129.709 39.025C130.065 38.869 130.372 38.6437 130.632 38.349L131.152 38.947C130.849 39.311 130.468 39.5883 130.008 39.779C129.558 39.9697 129.059 40.065 128.513 40.065C127.811 40.065 127.187 39.9177 126.641 39.623C126.104 39.3197 125.684 38.9037 125.38 38.375C125.077 37.8463 124.925 37.2483 124.925 36.581C124.925 35.9137 125.068 35.3157 125.354 34.787C125.649 34.2583 126.048 33.8467 126.55 33.552C127.062 33.2573 127.634 33.11 128.266 33.11C128.899 33.11 129.467 33.2573 129.969 33.552C130.472 33.8467 130.866 34.2583 131.152 34.787C131.438 35.307 131.581 35.905 131.581 36.581L131.568 36.867ZM128.266 33.903C127.608 33.903 127.053 34.1153 126.602 34.54C126.16 34.956 125.909 35.502 125.848 36.178H130.697C130.637 35.502 130.381 34.956 129.93 34.54C129.488 34.1153 128.934 33.903 128.266 33.903ZM136.294 40.065C135.618 40.065 135.012 39.9177 134.474 39.623C133.946 39.3283 133.53 38.9167 133.226 38.388C132.923 37.8507 132.771 37.2483 132.771 36.581C132.771 35.9137 132.923 35.3157 133.226 34.787C133.53 34.2583 133.946 33.8467 134.474 33.552C135.012 33.2573 135.618 33.11 136.294 33.11C136.884 33.11 137.408 33.227 137.867 33.461C138.335 33.6863 138.704 34.02 138.972 34.462L138.283 34.93C138.058 34.592 137.772 34.3407 137.425 34.176C137.079 34.0027 136.702 33.916 136.294 33.916C135.8 33.916 135.354 34.0287 134.955 34.254C134.565 34.4707 134.258 34.7827 134.032 35.19C133.816 35.5973 133.707 36.061 133.707 36.581C133.707 37.1097 133.816 37.5777 134.032 37.985C134.258 38.3837 134.565 38.6957 134.955 38.921C135.354 39.1377 135.8 39.246 136.294 39.246C136.702 39.246 137.079 39.1637 137.425 38.999C137.772 38.8343 138.058 38.583 138.283 38.245L138.972 38.713C138.704 39.155 138.335 39.493 137.867 39.727C137.399 39.9523 136.875 40.065 136.294 40.065ZM146.625 36.867H140.905C140.957 37.5777 141.23 38.154 141.724 38.596C142.218 39.0293 142.842 39.246 143.596 39.246C144.021 39.246 144.411 39.1723 144.766 39.025C145.121 38.869 145.429 38.6437 145.689 38.349L146.209 38.947C145.906 39.311 145.524 39.5883 145.065 39.779C144.614 39.9697 144.116 40.065 143.57 40.065C142.868 40.065 142.244 39.9177 141.698 39.623C141.161 39.3197 140.74 38.9037 140.437 38.375C140.134 37.8463 139.982 37.2483 139.982 36.581C139.982 35.9137 140.125 35.3157 140.411 34.787C140.706 34.2583 141.104 33.8467 141.607 33.552C142.118 33.2573 142.69 33.11 143.323 33.11C143.956 33.11 144.523 33.2573 145.026 33.552C145.529 33.8467 145.923 34.2583 146.209 34.787C146.495 35.307 146.638 35.905 146.638 36.581L146.625 36.867ZM143.323 33.903C142.664 33.903 142.11 34.1153 141.659 34.54C141.217 34.956 140.966 35.502 140.905 36.178H145.754C145.693 35.502 145.438 34.956 144.987 34.54C144.545 34.1153 143.99 33.903 143.323 33.903ZM152.118 39.584C151.945 39.74 151.728 39.8613 151.468 39.948C151.217 40.026 150.952 40.065 150.675 40.065C150.034 40.065 149.54 39.8917 149.193 39.545C148.846 39.1983 148.673 38.7087 148.673 38.076V33.942H147.451V33.162H148.673V31.667H149.596V33.162H151.676V33.942H149.596V38.024C149.596 38.4313 149.696 38.7433 149.895 38.96C150.103 39.168 150.398 39.272 150.779 39.272C150.97 39.272 151.152 39.2417 151.325 39.181C151.507 39.1203 151.663 39.0337 151.793 38.921L152.118 39.584ZM156.19 33.11C157.083 33.11 157.767 33.3353 158.244 33.786C158.721 34.228 158.959 34.8867 158.959 35.762V40H158.075V38.934C157.867 39.2893 157.559 39.5667 157.152 39.766C156.753 39.9653 156.277 40.065 155.722 40.065C154.959 40.065 154.353 39.883 153.902 39.519C153.451 39.155 153.226 38.674 153.226 38.076C153.226 37.4953 153.434 37.0273 153.85 36.672C154.275 36.3167 154.946 36.139 155.865 36.139H158.036V35.723C158.036 35.1337 157.871 34.6873 157.542 34.384C157.213 34.072 156.732 33.916 156.099 33.916C155.666 33.916 155.25 33.9897 154.851 34.137C154.452 34.2757 154.11 34.4707 153.824 34.722L153.408 34.033C153.755 33.7383 154.171 33.513 154.656 33.357C155.141 33.1923 155.653 33.11 156.19 33.11ZM155.865 39.337C156.385 39.337 156.831 39.22 157.204 38.986C157.577 38.7433 157.854 38.3967 158.036 37.946V36.828H155.891C154.721 36.828 154.136 37.2353 154.136 38.05C154.136 38.4487 154.288 38.765 154.591 38.999C154.894 39.2243 155.319 39.337 155.865 39.337ZM167.13 31.069C166.732 31.069 166.428 31.1773 166.22 31.394C166.021 31.6107 165.921 31.9313 165.921 32.356V33.162H168.027V33.942H165.947V40H165.024V33.942H163.802V33.162H165.024V32.317C165.024 31.693 165.202 31.199 165.557 30.835C165.921 30.471 166.433 30.289 167.091 30.289C167.351 30.289 167.603 30.328 167.845 30.406C168.088 30.4753 168.292 30.5793 168.456 30.718L168.144 31.407C167.876 31.1817 167.538 31.069 167.13 31.069ZM170.315 33.162H171.238V40H170.315V33.162ZM170.783 31.667C170.593 31.667 170.432 31.602 170.302 31.472C170.172 31.342 170.107 31.186 170.107 31.004C170.107 30.8307 170.172 30.679 170.302 30.549C170.432 30.419 170.593 30.354 170.783 30.354C170.974 30.354 171.134 30.419 171.264 30.549C171.394 30.6703 171.459 30.8177 171.459 30.991C171.459 31.1817 171.394 31.342 171.264 31.472C171.134 31.602 170.974 31.667 170.783 31.667ZM174.703 34.501C174.919 34.0417 175.24 33.695 175.665 33.461C176.098 33.227 176.631 33.11 177.264 33.11V34.007L177.043 33.994C176.323 33.994 175.76 34.215 175.353 34.657C174.945 35.099 174.742 35.7187 174.742 36.516V40H173.819V33.162H174.703V34.501ZM187.463 33.11C188.321 33.11 188.992 33.357 189.478 33.851C189.972 34.345 190.219 35.073 190.219 36.035V40H189.296V36.126C189.296 35.4153 189.122 34.8737 188.776 34.501C188.438 34.1283 187.957 33.942 187.333 33.942C186.622 33.942 186.063 34.163 185.656 34.605C185.248 35.0383 185.045 35.6407 185.045 36.412V40H184.122V36.126C184.122 35.4153 183.948 34.8737 183.602 34.501C183.264 34.1283 182.778 33.942 182.146 33.942C181.444 33.942 180.885 34.163 180.469 34.605C180.061 35.0383 179.858 35.6407 179.858 36.412V40H178.935V33.162H179.819V34.41C180.061 33.994 180.399 33.6733 180.833 33.448C181.266 33.2227 181.764 33.11 182.328 33.11C182.9 33.11 183.394 33.2313 183.81 33.474C184.234 33.7167 184.551 34.0763 184.759 34.553C185.01 34.1023 185.37 33.7513 185.838 33.5C186.314 33.24 186.856 33.11 187.463 33.11ZM195.114 33.11C196.007 33.11 196.691 33.3353 197.168 33.786C197.645 34.228 197.883 34.8867 197.883 35.762V40H196.999V38.934C196.791 39.2893 196.483 39.5667 196.076 39.766C195.677 39.9653 195.201 40.065 194.646 40.065C193.883 40.065 193.277 39.883 192.826 39.519C192.375 39.155 192.15 38.674 192.15 38.076C192.15 37.4953 192.358 37.0273 192.774 36.672C193.199 36.3167 193.87 36.139 194.789 36.139H196.96V35.723C196.96 35.1337 196.795 34.6873 196.466 34.384C196.137 34.072 195.656 33.916 195.023 33.916C194.59 33.916 194.174 33.9897 193.775 34.137C193.376 34.2757 193.034 34.4707 192.748 34.722L192.332 34.033C192.679 33.7383 193.095 33.513 193.58 33.357C194.065 33.1923 194.577 33.11 195.114 33.11ZM194.789 39.337C195.309 39.337 195.755 39.22 196.128 38.986C196.501 38.7433 196.778 38.3967 196.96 37.946V36.828H194.815C193.645 36.828 193.06 37.2353 193.06 38.05C193.06 38.4487 193.212 38.765 193.515 38.999C193.818 39.2243 194.243 39.337 194.789 39.337ZM206.655 30.354V40H205.771V38.648C205.494 39.1073 205.126 39.4583 204.666 39.701C204.216 39.9437 203.704 40.065 203.132 40.065C202.491 40.065 201.91 39.9177 201.39 39.623C200.87 39.3283 200.463 38.9167 200.168 38.388C199.874 37.8593 199.726 37.257 199.726 36.581C199.726 35.905 199.874 35.3027 200.168 34.774C200.463 34.2453 200.87 33.838 201.39 33.552C201.91 33.2573 202.491 33.11 203.132 33.11C203.687 33.11 204.185 33.227 204.627 33.461C205.078 33.6863 205.446 34.02 205.732 34.462V30.354H206.655ZM203.21 39.246C203.687 39.246 204.116 39.1377 204.497 38.921C204.887 38.6957 205.191 38.3793 205.407 37.972C205.633 37.5647 205.745 37.101 205.745 36.581C205.745 36.061 205.633 35.5973 205.407 35.19C205.191 34.7827 204.887 34.4707 204.497 34.254C204.116 34.0287 203.687 33.916 203.21 33.916C202.725 33.916 202.287 34.0287 201.897 34.254C201.516 34.4707 201.213 34.7827 200.987 35.19C200.771 35.5973 200.662 36.061 200.662 36.581C200.662 37.101 200.771 37.5647 200.987 37.972C201.213 38.3793 201.516 38.6957 201.897 38.921C202.287 39.1377 202.725 39.246 203.21 39.246ZM211.618 33.11C212.51 33.11 213.195 33.3353 213.672 33.786C214.148 34.228 214.387 34.8867 214.387 35.762V40H213.503V38.934C213.295 39.2893 212.987 39.5667 212.58 39.766C212.181 39.9653 211.704 40.065 211.15 40.065C210.387 40.065 209.78 39.883 209.33 39.519C208.879 39.155 208.654 38.674 208.654 38.076C208.654 37.4953 208.862 37.0273 209.278 36.672C209.702 36.3167 210.374 36.139 211.293 36.139H213.464V35.723C213.464 35.1337 213.299 34.6873 212.97 34.384C212.64 34.072 212.159 33.916 211.527 33.916C211.093 33.916 210.677 33.9897 210.279 34.137C209.88 34.2757 209.538 34.4707 209.252 34.722L208.836 34.033C209.182 33.7383 209.598 33.513 210.084 33.357C210.569 33.1923 211.08 33.11 211.618 33.11ZM211.293 39.337C211.813 39.337 212.259 39.22 212.632 38.986C213.004 38.7433 213.282 38.3967 213.464 37.946V36.828H211.319C210.149 36.828 209.564 37.2353 209.564 38.05C209.564 38.4487 209.715 38.765 210.019 38.999C210.322 39.2243 210.747 39.337 211.293 39.337Z" fill="white"/>
                <g clip-path="url(#clip0)">
                <path d="M52.5715 28.9642H47.0358C46.4243 28.9642 45.9286 29.4599 45.9286 30.0713C45.9286 30.6828 46.4243 31.1785 47.0358 31.1785H52.5715C53.183 31.1785 53.6787 31.6742 53.6787 32.2857V46.6787C53.6787 47.2902 53.183 47.7859 52.5715 47.7859H30.4285C29.817 47.7859 29.3213 47.2902 29.3213 46.6787V32.2856C29.3213 31.6741 29.817 31.1785 30.4285 31.1785H35.9642C36.5757 31.1785 37.0714 30.6828 37.0714 30.0713C37.0714 29.4598 36.5757 28.9641 35.9642 28.9641H30.4285C28.5941 28.9641 27.1071 30.4512 27.1071 32.2856V46.6786C27.1071 48.5129 28.5941 50 30.4285 50H52.5715C54.4059 50 55.893 48.5129 55.893 46.6786V32.2856C55.893 30.4512 54.4059 28.9642 52.5715 28.9642Z" fill="white"/>
                <path d="M47.8184 24.8599L42.2827 19.3242C41.8504 18.8919 41.1495 18.8919 40.7172 19.3242L35.1814 24.8599C34.7566 25.2998 34.7688 26.0006 35.2086 26.4254C35.6377 26.8398 36.3179 26.8398 36.7469 26.4254L40.3928 22.7795V41.1428C40.3928 41.7543 40.8885 42.25 41.5 42.25C42.1115 42.25 42.6072 41.7543 42.6072 41.1428V22.7796L46.253 26.4255C46.6929 26.8503 47.3938 26.8381 47.8185 26.3982C48.2328 25.9692 48.2328 25.289 47.8184 24.8599Z" fill="white"/>
                </g>
                <defs>
                <filter id="filter0_d" x="0.086853" y="0" width="241.913" height="78" filterUnits="userSpaceOnUse" color-interpolation-filters="sRGB">
                <feFlood flood-opacity="0" result="BackgroundImageFix"/>
                <feColorMatrix in="SourceAlpha" type="matrix" values="0 0 0 0 0 0 0 0 0 0 0 0 0 0 0 0 0 0 127 0"/>
                <feOffset dy="4"/>
                <feGaussianBlur stdDeviation="5"/>
                <feColorMatrix type="matrix" values="0 0 0 0 0 0 0 0 0 0 0 0 0 0 0 0 0 0 0.15 0"/>
                <feBlend mode="normal" in2="BackgroundImageFix" result="effect1_dropShadow"/>
                <feBlend mode="normal" in="SourceGraphic" in2="effect1_dropShadow" result="shape"/>
                </filter>
                <clipPath id="clip0">
                <rect width="31" height="31" fill="white" transform="translate(25.9999 19)"/>
                </clipPath>
                </defs>
            </svg>
        </symbol>

        <symbol>
            <svg id='star' width="100%" height="100%" viewBox="0 0 36 37" fill="none" xmlns="http://www.w3.org/2000/svg">
                <path d="M33 14.6247L22.215 13.6946L18 3.76465L13.785 13.7097L3 14.6247L11.19 21.7197L8.73 32.2647L18 26.6697L27.27 32.2647L24.825 21.7197L33 14.6247ZM18 23.8647L12.36 27.2697L13.86 20.8497L8.88 16.5297L15.45 15.9597L18 9.91465L20.565 15.9747L27.135 16.5447L22.155 20.8647L23.655 27.2847L18 23.8647Z" fill="#535B6C"/>
            </svg>
        </symbol>
        <symbol>
            <svg id='starFilled' width="36" height="37" viewBox="0 0 36 37" fill="none" xmlns="http://www.w3.org/2000/svg">
                <path d="M18 26.6697L27.27 32.2647L24.81 21.7197L33 14.6247L22.215 13.7097L18 3.76465L13.785 13.7097L3 14.6247L11.19 21.7197L8.73 32.2647L18 26.6697Z" fill="#1ECD96"/>
            </svg>
        </symbol>
    </defs>
</svg>
