<svg version="1.1" xmlns="http://www.w3.org/2000/svg">
    <defs>
        <symbol id="book" viewBox="0 0 24 24">
            <path d="M19 16V3H6.5A1.5 1.5 0 0 0 5 4.5v11.837A3.486 3.486 0 0 1 6.5 16H19zm0 2H6.5a1.5 1.5 0 0 0 0 3H19v-3zM6.5 1H20a1 1 0 0 1 1 1v20a1 1 0 0 1-1 1H6.5A3.5 3.5 0 0 1 3 19.5v-15A3.5 3.5 0 0 1 6.5 1z"/>
        </symbol>

        <symbol id="report" viewBox="0 0 24 24">
            <path d="M20.029 17.395c0 .682-.534 1.234-1.197 1.234H7.467c-.335-.002-.732-.004-1.132-.01-.303-.004-.373-.198-.383-.35a6.47 6.47 0 0 1 .127-.875 5.586 5.586 0 0 0 .04-.19c.136-.685.17-1.334.17-1.334.006-.097.008-.183.008-.237V3.404c0-.679.536-1.234 1.197-1.234h11.338c.661 0 1.196.555 1.196 1.234v13.991zM20.019.69H6.281c-.803 0-1.45.661-1.45 1.467v1.965c-.008.166-.06.431-.308.43l-2.297-.01C.988 4.537.613 5.424.5 6.032v10.647s.037 1.034.289 1.65c.124.274.282.551.479.84.317.466.802.712 1.2.842h-.002s.19.153 1.608.223H20.17c.73-.076 1.3-.691 1.3-1.452V2.157A1.46 1.46 0 0 0 20.018.69zM4.7 15.015c0 .401-.114 1.48-.137 1.691-.01.058-.017.112-.03.171h.001s-.105.661-.279 1.126a.451.451 0 0 1-.29.292c-.844.146-1.284-.15-1.383-.231a1.97 1.97 0 0 1-.386-.528l-.014-.022c-.01-.018-.015-.035-.024-.054-.021-.043-.043-.083-.064-.131-.011-.026-.017-.05-.025-.074a4.166 4.166 0 0 1-.366-1.77l.024-7.61s-.059-1.573.989-1.566c.889.005 1.51.01 1.679.01h.058c.088.01.245.067.246.372v.174H4.7v8.15zm3.728-9.177h9.494s.667-.054.66.489c0 .199-.015.489-.68.489H8.427s-.505-.07-.489-.49c.007-.236.138-.488.49-.488zM8.362 9.49h9.495s.667-.053.66.49c0 .198-.016.488-.681.488H8.362s-.504-.07-.489-.49c.008-.235.138-.488.489-.488zm0 4.016h9.495s.667-.053.66.489c0 .198-.016.489-.681.489H8.362s-.504-.07-.489-.489c.008-.236.138-.49.489-.49z"/>
        </symbol>

        <symbol id="exclamation" viewBox="0 0 24 24">
            <path d="M12 0c6.628 0 12 5.233 12 11.688 0 6.456-5.372 11.689-12 11.689-6.627 0-12-5.233-12-11.689C0 5.233 5.373 0 12 0zm-.039 5.245c-.856 0-1.505.447-1.505 1.17v6.623c0 .722.648 1.168 1.505 1.168.836 0 1.505-.464 1.505-1.168V6.415c0-.705-.67-1.17-1.505-1.17zm0 10.453c-.823 0-1.493.67-1.493 1.494 0 .822.67 1.492 1.493 1.492a1.494 1.494 0 0 0 0-2.986z"/>
        </symbol>
    </defs>
</svg>
