<svg version="1.1" xmlns="http://www.w3.org/2000/svg">
    <defs>
        <symbol id="book" viewBox="0 0 40 40">
            <g transform="translate(8 6)">
              <path d="M21.744 25.906a.169.169 0 0 1-.029.094H4.758c-.149 0-.293-.02-.36-.03a3.177 3.177 0 0 1-1.674-1.06 2.425 2.425 0 0 1-.416-1.359 2.452 2.452 0 0 1 2.45-2.449h16.986v4.804zM2 5.151c0-1.738 1.448-3.15 3.228-3.15h16.308c.114 0 .208.082.208.185v16.916H4.758c-.286 0-.565.033-.836.084-.088.017-.17.046-.257.068a4.374 4.374 0 0 0-.528.164c-.095.037-.185.081-.276.125a4.278 4.278 0 0 0-.7.411c-.052.038-.11.068-.16.108V5.152zM21.536.001H5.228C2.346 0 0 2.31 0 5.15v17.79c0 1.135.383 2.221 1.108 3.142l.002.004c.71.9 1.672 1.528 2.857 1.835.294.053.545.078.791.078h17.244c.131 0 .26-.026.381-.075a2.181 2.181 0 0 0 1.361-2.019V2.186C23.744.98 22.754 0 21.536 0z"/>
            </g>
        </symbol>

        <symbol id="report" viewBox="0 0 40 40">
            <g transform="translate(7 7)">
                <path d="M22.219 17.653a.928.928 0 0 1-.929.929H9.037a.928.928 0 1 1 0-1.857H21.29c.514 0 .929.416.929.928zm0-4.881a.928.928 0 0 1-.929.928H9.037a.928.928 0 1 1 0-1.857H21.29c.514 0 .929.416.929.929zm0-4.882a.928.928 0 0 1-.929.929H9.037a.928.928 0 1 1 0-1.857H21.29c.514 0 .929.416.929.928zm1.39 15.453a.8.8 0 0 1-.799.8H6.126c.223-.44.36-.929.36-1.453V6.59c0-.005.004-.009.004-.015V2.638c0-.43.35-.78.78-.78h15.54a.8.8 0 0 1 .8.799v20.686zM1.858 6.742H4.63V22.69c0 .764-.623 1.386-1.388 1.386-.138 0-.27-.027-.397-.066a1.63 1.63 0 0 1-.988-1.496V6.742zM22.81 0H7.27a2.64 2.64 0 0 0-2.638 2.638v1.058l-.002.013v1.175H1.683C.756 4.884 0 5.64 0 6.568v15.946c0 .04.01.077.012.117-.002.02-.012.037-.012.059 0 1.393.887 2.573 2.122 3.03.42.18.88.28 1.364.28H22.81a2.66 2.66 0 0 0 2.657-2.657V2.657A2.66 2.66 0 0 0 22.81 0z"/>
            </g>
        </symbol>

        <symbol id="exclamation" viewBox="0 0 24 24">
            <path d="M12,0 C18.6276104,0 24,5.233121 24,11.6883117 C24,18.1435024 18.6278354,23.3766234 12,23.3766234 C5.3728959,23.3766234 0,18.1435024 0,11.6883117 C0,5.233121 5.3728959,0 12,0 Z M11.9611986,5.24537979 C11.1045575,5.24537979 10.4563902,5.69243206 10.4563902,6.41452265 L10.4563902,13.0376028 C10.4563902,13.760446 11.1044739,14.205993 11.9611986,14.205993 C12.7969338,14.205993 13.466007,13.7417979 13.466007,13.0376028 L13.466007,6.41452265 C13.4659233,5.70957491 12.7969338,5.24537979 11.9611986,5.24537979 Z M11.9611986,15.6980906 C11.1381742,15.6980906 10.4683484,16.3679164 10.4683484,17.1916098 C10.4683484,18.0138815 11.1381742,18.6837073 11.9611986,18.6837073 C12.784223,18.6837073 13.4532962,18.0138815 13.4532962,17.1916098 C13.4532125,16.3678328 12.784223,15.6980906 11.9611986,15.6980906 Z"/>
        </symbol>

        <symbol id="add" viewBox="0 0 24 24">
            <path d="M13,11 L19,11 C19.5522847,11 20,11.4477153 20,12 C20,12.5522847 19.5522847,13 19,13 L13,13 L13,19 C13,19.5522847 12.5522847,20 12,20 C11.4477153,20 11,19.5522847 11,19 L11,13 L5,13 C4.44771525,13 4,12.5522847 4,12 C4,11.4477153 4.44771525,11 5,11 L11,11 L11,5 C11,4.44771525 11.4477153,4 12,4 C12.5522847,4 13,4.44771525 13,5 L13,11 Z"/>
        </symbol>

        <symbol id="clock" viewBox="0 0 24 24">
            <defs>
                <path id="clock-path" d="M12,24 C5.37272727,24 0,18.6272727 0,12 C0,5.37272727 5.37272727,0 12,0 C18.6272727,0 24,5.37272727 24,12 C24,18.6272727 18.6272727,24 12,24 Z M12,21.8181818 C15.5076986,21.8181819 18.7489457,19.946847 20.502795,16.909091 C22.2566443,13.8713349 22.2566443,10.1286651 20.502795,7.09090905 C18.7489457,4.053153 15.5076986,2.18181813 12,2.18181818 C6.57756799,2.1818183 2.18181839,6.57756799 2.18181839,12 C2.18181839,17.422432 6.57756799,21.8181817 12,21.8181818 Z M13.0909091,5.45454545 L13.0909091,11.5483636 L16.044,14.5014545 C16.4574242,14.9295042 16.4515117,15.6099107 16.0307112,16.0307112 C15.6099107,16.4515117 14.9295042,16.4574242 14.5014545,16.044 L11.2287273,12.7712727 C11.024128,12.5667352 10.9091527,12.2893034 10.9090909,12 L10.9090909,5.45454545 C10.9090909,4.852053 11.3975075,4.36363636 12,4.36363636 C12.6024925,4.36363636 13.0909091,4.852053 13.0909091,5.45454545 Z" />
            </defs>
            <g stroke="none" stroke-width="1" fill="none" fill-rule="evenodd">
                <g id="clock">
                    <g fill="#000000" fill-rule="nonzero">
                        <path id="clock-ghost" d="M12,24 C5.37272727,24 0,18.6272727 0,12 C0,5.37272727 5.37272727,0 12,0 C18.6272727,0 24,5.37272727 24,12 C24,18.6272727 18.6272727,24 12,24 Z M12,21.8181818 C15.5076986,21.8181819 18.7489457,19.946847 20.502795,16.909091 C22.2566443,13.8713349 22.2566443,10.1286651 20.502795,7.09090905 C18.7489457,4.053153 15.5076986,2.18181813 12,2.18181818 C6.57756799,2.1818183 2.18181839,6.57756799 2.18181839,12 C2.18181839,17.422432 6.57756799,21.8181817 12,21.8181818 Z M13.0909091,5.45454545 L13.0909091,11.5483636 L16.044,14.5014545 C16.4574242,14.9295042 16.4515117,15.6099107 16.0307112,16.0307112 C15.6099107,16.4515117 14.9295042,16.4574242 14.5014545,16.044 L11.2287273,12.7712727 C11.024128,12.5667352 10.9091527,12.2893034 10.9090909,12 L10.9090909,5.45454545 C10.9090909,4.852053 11.3975075,4.36363636 12,4.36363636 C12.6024925,4.36363636 13.0909091,4.852053 13.0909091,5.45454545 Z" />
                    </g>
                    <g>
                        <mask id="clock-mask" fill="white">
                            <use xlink:href="#clock-path"/>
                        </mask>
                        <g id="clock-ghost"/>
                        <g mask="url(#clock-mask)" fill="#383435" fill-rule="nonzero">
                            <g transform="translate(-1.090909, -1.090909)" >
                                <polygon points="0 0 26.1818182 0 26.1818182 26.1818182 0 26.1818182"/>
                            </g>
                        </g>
                    </g>
                </g>
            </g>
        </symbol>

        <symbol id="warning" viewBox="0 0 28 28">
            <g stroke="none" stroke-width="1" fill="none" fill-rule="evenodd">
                <g transform="translate(2.000000, 2.000000)">
                    <path d="M12,23.8461538 C18.5424615,23.8461538 23.8461538,18.5424615 23.8461538,12 C23.8461538,5.45753846 18.5424615,0.153846154 12,0.153846154 C5.45753846,0.153846154 0.153846154,5.45753846 0.153846154,12 C0.153846154,18.5424615 5.45753846,23.8461538 12,23.8461538 Z" id="warning-path" stroke="#3E268F" stroke-width="3"/>
                    <path d="M13.4590769,17.9572308 L13.4590769,11.8784615 C13.4590769,11.0390769 12.8058462,10.3584615 12,10.3584615 C11.1941538,10.3584615 10.5409231,11.0390769 10.5409231,11.8784615 L10.5409231,17.9569231 C10.5409231,18.7963077 11.1941538,19.4769231 12,19.4769231 C12.8058462,19.4769231 13.4590769,18.7963077 13.4590769,17.9569231 L13.4590769,17.9572308 Z M11.1135385,7.75753846 C11.4289916,8.08064823 11.8938194,8.20917491 12.3304543,8.09402031 C12.7670891,7.97886571 13.1080757,7.63781994 13.2231546,7.20116511 C13.3382334,6.76451028 13.209626,6.29970471 12.8864615,5.98430769 C12.3951113,5.50476742 11.6094669,5.50957964 11.1240278,5.99510292 C10.6385888,6.48062621 10.6339129,7.26627146 11.1135385,7.75753846 Z" id="warning-path" fill="#3E268F" fill-rule="nonzero"/>
                </g>
            </g>
        </symbol>

        <symbol id="calendar-check" viewBox="0 0 56 58">
            <path d="M49.424 39.416a1.733 1.733 0 0 0-2.474 0l-6.187 6.26-3.713-3.756a1.734 1.734 0 0 0-2.474 0 1.785 1.785 0 0 0 0 2.504l4.95 5.01a1.734 1.734 0 0 0 2.474 0l7.424-7.514a1.785 1.785 0 0 0 0-2.504zM28 28.699h7v-7.085h-7V28.7zM3.5 42.515V18.072H42v7.085h3.5V11.34c0-2.152-1.695-3.895-3.79-3.895h-1.46v1.771c0 1.95-1.569 3.542-3.5 3.542-1.93 0-3.5-1.591-3.5-3.542V7.446h-21v1.771c0 1.95-1.569 3.542-3.5 3.542-1.93 0-3.5-1.591-3.5-3.542V7.446H3.792C1.697 7.446 0 9.189 0 11.34v31.174c0 2.145 1.697 3.895 3.792 3.895H24.5v-3.543H3.792c-.158 0-.292-.166-.292-.352zm14-3.19h7v-7.084h-7v7.084zm0-10.626h7v-7.085h-7V28.7zM7 39.325h7v-7.084H7v7.084zM7 28.7h7v-7.085H7V28.7zm45.5 14.168c0-5.859-4.71-10.626-10.5-10.626s-10.5 4.767-10.5 10.626c0 5.86 4.71 10.627 10.5 10.627s10.5-4.767 10.5-10.627zm3.5 0c0 7.825-6.268 14.17-14 14.17-7.731 0-14-6.345-14-14.17 0-7.824 6.269-14.168 14-14.168 7.732 0 14 6.344 14 14.168zM36.75 10.988a1.76 1.76 0 0 0 1.75-1.77V2.132A1.76 1.76 0 0 0 36.75.36 1.76 1.76 0 0 0 35 2.133v7.084a1.76 1.76 0 0 0 1.75 1.771zM7 9.217V2.133C7 1.153 7.783.36 8.75.36s1.75.792 1.75 1.772v7.084a1.76 1.76 0 0 1-1.75 1.77A1.76 1.76 0 0 1 7 9.218z"/>
        </symbol>

        <symbol id="locker" viewBox="0 0 16 16">
            <path d="M12.195 5.907h-1.141V4.385a4.185 4.185 0 1 0-8.371 0v1.522H1.54C.911 5.907.4 6.418.4 7.05v7.61c0 .63.511 1.141 1.141 1.141h10.654c.63 0 1.142-.511 1.142-1.141v-7.61c0-.63-.511-1.142-1.142-1.142zm-8.37-1.522a3.044 3.044 0 0 1 6.087 0v1.522H3.824V4.385zm8.37 10.274H1.541v-7.61h10.654v7.61zM7.06 12.756a1.712 1.712 0 1 0 0-3.424 1.712 1.712 0 0 0 0 3.424zm0-2.283a.57.57 0 1 1 0 1.142.57.57 0 0 1 0-1.142z"/>
        </symbol>

        <symbol id="check-circle" viewBox="0 0 186 186">
            <path d="M92.7010222,0 C41.7783556,0 0.114355556,41.7149778 0.114355556,92.7010222 C0.114355556,143.687067 41.7783556,185.402044 92.7010222,185.402044 C143.623689,185.402044 185.287689,143.687067 185.287689,92.7010222 C185.287689,41.7149778 143.623689,0 92.7010222,0 Z M92.7010222,173.813556 C48.1436889,173.813556 11.6876889,137.312089 11.6876889,92.7010222 C11.6876889,48.0899556 48.1436889,11.5871111 92.7010222,11.5871111 C137.258356,11.5871111 173.714356,48.0885778 173.714356,92.6996444 C173.714356,137.310711 137.258356,173.813556 92.7010222,173.813556 Z"></path>
            <path d="M129.157022,65.4692444 L81.1276889,113.557822 L56.8236889,89.2248889 C54.5090222,86.9074667 51.0370222,86.9074667 48.7223556,89.2248889 C46.4076889,91.5423111 46.4076889,95.0184444 48.7223556,97.3358667 L77.0770222,125.724978 C78.2343556,126.883689 79.3916889,127.463733 81.1276889,127.463733 C82.8636889,127.463733 84.0210222,126.883689 85.1783556,125.724978 L137.258356,73.5816 C139.573022,71.2641778 139.573022,67.7880444 137.258356,65.4706222 C134.943689,63.1518222 131.471689,63.1518222 129.157022,65.4692444 Z"></path>
        </symbol>
        <symbol id="off" viewBox="0 0 40 40">
            <g transform="translate(6 7)">
                <path d="M27.707 12.556l-3.366-3.367a1 1 0 0 0-1.414 1.414l1.659 1.66H9.57a1 1 0 0 0 0 2h15.016l-1.659 1.659a.999.999 0 1 0 1.414 1.414l3.366-3.366a.999.999 0 0 0 0-1.414m-4.548 8.019a1 1 0 0 1 .095 1.41 13.27 13.27 0 0 1-9.991 4.54C5.949 26.525 0 20.575 0 13.263 0 5.95 5.949 0 13.263 0c3.786 0 7.4 1.624 9.916 4.456a1 1 0 0 1-1.494 1.329A11.279 11.279 0 0 0 13.263 2C7.053 2 2 7.053 2 13.263s5.053 11.262 11.263 11.262c3.251 0 6.343-1.405 8.485-3.856a.998.998 0 0 1 1.411-.094"/>
            </g>
        </symbol>
        <!-- ICONOS CON PADDING -->
        <symbol id="calendar" viewBox="0 0 40 40">
            <g fill-rule="evenodd" transform="translate(7 7)">
                <path id="a" d="M23.539 24.762H2.46c-.674 0-1.222-.55-1.222-1.223V10.323h23.524V23.54c0 .674-.55 1.223-1.223 1.223M2.46 3.028h4.548V4.03a.618.618 0 1 0 1.238 0v-1h9.507v1a.619.619 0 1 0 1.238 0v-1h4.548c.674 0 1.223.547 1.223 1.221v4.835H1.238V4.25c0-.674.548-1.222 1.222-1.222M23.54 1.79H18.99V.62a.618.618 0 1 0-1.238 0V1.79H8.246V.62a.618.618 0 1 0-1.238 0V1.79H2.46A2.463 2.463 0 0 0 0 4.25V23.54A2.463 2.463 0 0 0 2.46 26H23.54A2.464 2.464 0 0 0 26 23.539V4.25a2.464 2.464 0 0 0-2.461-2.46"/>
            </g>
        </symbol>

        <symbol id="navigation-arrow" viewBox="0 0 24 24">
            <path d="M15.428 20.228a.641.641 0 0 0 .906-.907l-6.84-6.84 6.84-6.602a.641.641 0 0 0-.906-.907L7.8 12.48l7.628 7.748z"/>
        </symbol>

        <symbol id="users" viewBox="0 0 24 24">
            <path d="M16.64 12.252c1.79 0 3.246 1.51 3.246 3.366v1.28c0 .445-.349.808-.778.808-.43 0-.779-.363-.779-.808v-1.28c0-.964-.758-1.75-1.688-1.75h-4.934c-.93 0-1.688.786-1.688 1.75v1.28c0 .445-.349.808-.778.808-.43 0-.779-.363-.779-.808v-1.28c0-1.856 1.456-3.366 3.245-3.366h4.934zm-2.7-.895c-1.855 0-3.364-1.415-3.364-3.156 0-1.74 1.51-3.155 3.364-3.155 1.857 0 3.367 1.415 3.367 3.155 0 1.741-1.51 3.156-3.367 3.156zm-1.75-3.156c0 .904.786 1.64 1.75 1.64.966 0 1.75-.736 1.75-1.64 0-.904-.784-1.64-1.75-1.64-.964 0-1.75.736-1.75 1.64zM8.664 12.4l-.1.084c-.446.367-.8.81-1.056 1.318l-.01.022-.024.005a1.894 1.894 0 0 0-1.606 1.875v1.304a.699.699 0 0 1-1.397 0v-1.304A3.309 3.309 0 0 1 7.776 12.4h.887zm1.515-.812c-1.85 0-3.354-1.478-3.354-3.294S8.328 5 10.178 5c.246 0 .503.033.786.1l.095.022-.077.06c-.427.333-.78.742-1.045 1.214l-.011.02-.024.004c-.946.134-1.66.939-1.66 1.874 0 .92.67 1.706 1.594 1.868l.024.004.01.021c.25.48.59.901 1.01 1.252l.074.062-.096.02c-.221.045-.45.067-.68.067z"/>
        </symbol>

        <symbol id="paper-pencil" viewBox="0 0 24 24">
            <g transform="translate(5 4)">
                <path d="M12 14.91V8h1.09v6.91A1.09 1.09 0 0 1 12 16H1.09A1.09 1.09 0 0 1 0 14.91V1.09C0 .489.488 0 1.09 0h6.183v1.09H1.09v13.82H12zm1.862-13.55v.004a1.09 1.09 0 0 1 0 1.541s-5.96 6.153-6.324 6.248l-1.09.272a1.09 1.09 0 0 1-1.324-1.323l.272-1.091C5.487 6.644 11.55.589 11.55.589a1.09 1.09 0 0 1 1.542 0l.77.771zM7.97 7.25l5.12-5.115-.771-.771-5.12 5.12.025.021.746.746z"/>
            </g>
        </symbol>

        <symbol id="close" viewBox="0 0 24 24">
            <g transform="translate(4 4)">
                <path d="M9.242 8.018l6.555-6.683A.774.774 0 0 0 14.692.25L8.148 6.924 1.335.24A.774.774 0 1 0 .25 1.345l6.802 6.673-6.802 6.674a.774.774 0 0 0 1.084 1.104l6.813-6.684 6.544 6.674a.774.774 0 0 0 1.105-1.084L9.242 8.018z"/>
            </g>
        </symbol>

        <symbol id="add-circle" viewBox="0 0 40 40">
            <g fill-rule="evenodd" transform="translate(7 7)">
                <path d="M13 0C5.82 0 0 5.82 0 13s5.82 13 13 13 13-5.82 13-13S20.18 0 13 0zm0 24.227C6.8 24.227 1.773 19.201 1.773 13 1.773 6.8 6.799 1.773 13 1.773c6.2 0 11.227 5.026 11.227 11.227A11.227 11.227 0 0 1 13 24.227zm4.727-11.818h-3.545V8.864a.886.886 0 0 0-1.773 0v3.545H8.864a.886.886 0 1 0 0 1.773h3.545v3.545a.886.886 0 1 0 1.773 0v-3.545h3.545a.886.886 0 0 0 0-1.773z"/>
            </g>
        </symbol>

        <symbol id="search" viewBox="0 0 24 24">
            <path d="M19.835 19.783l-3.794-3.772a7.045 7.045 0 1 0-.944.796l3.867 3.867a.616.616 0 0 0 .87-.87v-.02zM5.339 11.084a5.747 5.747 0 1 1 11.495 0 5.747 5.747 0 0 1-11.495 0z"/>
        </symbol>

        <symbol id="eye" viewBox="0 0 24 24">
            <g transform="translate(4 8)">
                <path d="M13.204 5.788a9.735 9.735 0 0 1-1.885 1.077 4.123 4.123 0 0 0 .852-2.497 4.134 4.134 0 0 0-1.06-2.75 9.58 9.58 0 0 1 2.093 1.158 10.424 10.424 0 0 1 1.665 1.506c-.289.328-.856.918-1.665 1.506M1.131 4.282c.288-.328.856-.918 1.664-1.506A9.645 9.645 0 0 1 4.89 1.618a4.138 4.138 0 0 0-1.06 2.75c0 .94.324 1.798.851 2.497a9.727 9.727 0 0 1-1.884-1.077 10.379 10.379 0 0 1-1.665-1.506M9.266 7.46c-.42.067-.843.103-1.266.103-.423 0-.846-.036-1.266-.103A3.342 3.342 0 0 1 8 1.024 3.342 3.342 0 1 1 9.266 7.46m6.622-3.516c-.032-.041-.764-1.009-2.095-1.977C12.023.68 10.02 0 8 0S3.976.68 2.207 1.967C.877 2.935.143 3.903.113 3.944a.561.561 0 0 0 0 .676c.03.04.763 1.008 2.094 1.977C3.977 7.883 5.98 8.563 8 8.563s4.023-.68 5.793-1.966c1.331-.97 2.063-1.936 2.095-1.977a.567.567 0 0 0 0-.676"/>
            </g>
        </symbol>

        <symbol id="microphone-on" viewBox="0 0 24 24">
            <path d="M16.7 18.71a9.015 9.015 0 0 1-7.31 5.443V26h2.69a1 1 0 1 1 0 2H4.7a1 1 0 1 1 0-2h2.69v-1.847A9.015 9.015 0 0 1 .08 18.71a1 1 0 1 1 1.842-.781 7.024 7.024 0 0 0 6.468 4.299 7.024 7.024 0 0 0 6.469-4.299 1.006 1.006 0 0 1 1.312-.531 1 1 0 0 1 .53 1.312zM3.62 6.771A4.776 4.776 0 0 1 8.39 2a4.776 4.776 0 0 1 4.77 4.771v6.496c0 2.63-2.14 4.77-4.77 4.77-2.63 0-4.77-2.14-4.77-4.77V6.771zm4.77 13.266a6.778 6.778 0 0 0 6.77-6.77V6.771A6.778 6.778 0 0 0 8.39 0a6.778 6.778 0 0 0-6.77 6.771v6.496a6.778 6.778 0 0 0 6.77 6.77z"/>
        </symbol>

        <symbol id="camera-on" viewBox="0 0 24 24">
            <path d="M24 10.415c0 .413-.288.639-.412.717a1.007 1.007 0 0 1-.976.052L19.317 9.59a.857.857 0 0 1-.505-.767V5.137c0-.323.195-.618.507-.769l3.292-1.592a1.016 1.016 0 0 1 .978.054c.123.078.411.303.411.715v6.87zm-7.376.649c0 .955-.776 1.73-1.73 1.73H3.73c-.954 0-1.73-.775-1.73-1.73V3.73C2 2.776 2.776 2 3.73 2h11.164c.954 0 1.73.776 1.73 1.73v7.334zm8.028-9.927a2.99 2.99 0 0 0-2.911-.161l-3.294 1.592-.008.003A3.736 3.736 0 0 0 14.894 0H3.73A3.735 3.735 0 0 0 0 3.73v7.334a3.735 3.735 0 0 0 3.73 3.73h11.164c1.92 0 3.507-1.46 3.709-3.328l3.138 1.518a2.996 2.996 0 0 0 2.909-.158A2.84 2.84 0 0 0 26 10.415v-6.87c0-.978-.504-1.878-1.348-2.408z"/>
        </symbol>

        <symbol id="volume" viewBox="0 0 24 24">
            <path d="M12.72 2.603l-6.651 5.54c-.014.013-.031.02-.045.032v7.214c.044.03.09.058.133.093l6.563 5.468V2.603zM2 15.018h2.024V8.607H2v6.41zM14.72 1.68v20.192c0 1.049-.586 1.437-.84 1.556a1.365 1.365 0 0 1-.57.12c-.315 0-.72-.103-1.164-.474l-7.27-6.056H1.759a1.758 1.758 0 0 1-1.76-1.76V8.365c0-.968.787-1.757 1.76-1.757h3.029L12.146.479c.445-.373.85-.48 1.167-.48.258 0 .456.072.568.125.253.118.839.505.839 1.556zm4.934 10.12a4.277 4.277 0 0 0-2.76-3.984 1.001 1.001 0 0 0-.703 1.873 2.266 2.266 0 0 1 1.463 2.11 2.25 2.25 0 0 1-1.376 2.077 1 1 0 1 0 .779 1.842 4.249 4.249 0 0 0 2.597-3.918z"/>
        </symbol>

        <symbol id="mini-video" viewBox="0 0 40 40">
            <g fill-rule="evenodd" transform="translate(7 7)">
                <path id="mini-video-path_1" d="M8.068 21.465h13.235v-9.26H8.068v9.26zM2 24h22V2H2v22zM24.07 0H1.93C.869 0 0 .869 0 1.93v22.14C0 25.132.869 26 1.93 26h22.14c1.061 0 1.93-.868 1.93-1.93V1.93C26 .869 25.131 0 24.07 0z"/>
                <mask id="mini-video-mask_1" fill="#fff"></mask>
                <g mask="url(#mini-video-mask_1)">
                    <path d="M-7-7h40v40H-7z"/>
                </g>
            </g>
        </symbol>

        <symbol id="call" viewBox="0 0 24 24">
            <path d="M14.001 5.768c1.51 0 3.02.258 4.456.774.398.144.662.52.662.942V9.96c0 .455.37.827.824.827h5.231A.828.828 0 0 0 26 9.96a5.961 5.961 0 0 0-2.468-4.826C17.741.965 10.259.963 4.47 5.135A5.957 5.957 0 0 0 2 9.96c0 .455.371.827.826.827h5.231a.827.827 0 0 0 .824-.827V7.483c0-.421.265-.798.662-.941a13.199 13.199 0 0 1 4.458-.774m11.173 7.02h-5.231a2.829 2.829 0 0 1-2.824-2.828V8.21a11.232 11.232 0 0 0-6.238 0v1.75a2.829 2.829 0 0 1-2.824 2.827H2.826A2.83 2.83 0 0 1 0 9.96a7.96 7.96 0 0 1 3.301-6.449c6.498-4.682 14.899-4.68 21.399 0a7.963 7.963 0 0 1 3.3 6.45 2.83 2.83 0 0 1-2.826 2.826"/>
        </symbol>

        <symbol id="fullscreen" viewBox="0 0 40 40">
            <g fill-rule="evenodd" transform="translate(7 7)">
                <path id="fullscreen-path_1" d="M13.907 12.107a1 1 0 0 1-.01-1.414l4.604-4.67h-2.578a1 1 0 1 1 0-2h4.334c.95 0 1.725.775 1.725 1.727v4.49a1 1 0 1 1-2 0V7.37l-4.661 4.727a.998.998 0 0 1-1.414.01zm-9.747 8.17v-4.491a1 1 0 1 1 2 0v2.87l4.66-4.727a1 1 0 0 1 1.424 1.405L7.64 20.003h2.579a1 1 0 1 1 0 2H5.885a1.727 1.727 0 0 1-1.725-1.725zM2 24.002h22V2H2v22zM24.07 0H1.93C.869 0 0 .869 0 1.93v22.14C0 25.13.869 26 1.93 26h22.14c1.062 0 1.93-.87 1.93-1.93V1.93A1.935 1.935 0 0 0 24.07 0z"/>
                <mask id="fullscreen-mask_1" fill="#fff"></mask>
                <g mask="url(#fullscreen-mask_1)">
                    <path d="M-7-7h40v40H-7z"/>
                </g>
            </g>
        </symbol>

        <symbol id="upload" viewBox="0 0 40 40">
            <g transform="translate(7 7)">
                <path d="M10.207 5.073l1.659-1.659v13.314a1 1 0 1 0 2 0V3.414l1.659 1.66a1 1 0 0 0 1.414-1.415L13.573.293a.999.999 0 0 0-1.414 0L8.793 3.66a.999.999 0 1 0 1.414 1.414m15.525 7.456v10.868a3.113 3.113 0 0 1-3.11 3.11H3.11A3.113 3.113 0 0 1 0 23.397V12.53a1 1 0 1 1 2 0v10.868c0 .612.498 1.11 1.11 1.11h19.512c.612 0 1.11-.498 1.11-1.11V12.53a1 1 0 1 1 2 0"/>
            </g>
        </symbol>

        <symbol id="trash" viewBox="0 0 40 40">
            <g transform="translate(7 7)">
                <path d="M17.345 20.573V9.377a.928.928 0 1 1 1.858 0v11.196a.928.928 0 1 1-1.858 0zm-5.274 0V9.377a.929.929 0 0 1 1.857 0v11.196a.928.928 0 1 1-1.857 0zm-5.351 0V9.377a.928.928 0 1 1 1.857 0v11.196a.928.928 0 1 1-1.857 0zM21.49 21.9c0 .568-.463 1.031-1.031 1.031H5.542A1.034 1.034 0 0 1 4.511 21.9V6.015h16.98V21.9zM9.563 2.766c.276-.56.837-.909 1.462-.909h3.953c.626 0 1.186.349 1.462.91l.687 1.391h-8.25l.686-1.392zm15.51 1.392h-5.876l-1.091-2.213A3.464 3.464 0 0 0 14.977 0h-3.953a3.464 3.464 0 0 0-3.128 1.945l-1.09 2.213H.927a.929.929 0 0 0 0 1.857h1.726V21.9a2.891 2.891 0 0 0 2.888 2.888H20.46a2.892 2.892 0 0 0 2.889-2.888V6.015h1.723a.928.928 0 1 0 0-1.857z"/>
            </g>
        </symbol>

        <symbol id="arrow-down" viewBox="0 0 40 40">
            <g transform="rotate(-90 20.255 20)">
                <path d="M25.713 32.713a1.069 1.069 0 0 0 1.51-1.51L15.823 19.8 27.224 8.798a1.069 1.069 0 0 0-1.51-1.511L13 19.8l12.713 12.913z"/>
            </g>
        </symbol>

        <symbol id="alert" viewBox="0 0 40 40">
            <g transform="translate(7 7)">
                <path d="M13.06 6.295a1.156 1.156 0 1 0 0 2.312 1.156 1.156 0 0 0 0-2.312M24 13c0-6.065-4.934-11-11-11C6.935 2 2 6.935 2 13c0 6.066 4.935 11 11 11 6.066 0 11-4.934 11-11m2 0c0 7.18-5.82 13-13 13S0 20.18 0 13 5.82 0 13 0s13 5.82 13 13m-11.94-2.015v7.834a1 1 0 1 1-2 0v-7.834a1 1 0 1 1 2 0"/>
            </g>
        </symbol>

        <symbol id="check" viewBox="0 0 40 40">
            <path d="M32.606 12.379a1.385 1.385 0 0 0-1.903 0L17.29 25.277 9.265 17.56a1.385 1.385 0 0 0-1.87.032 1.26 1.26 0 0 0-.034 1.798l8.978 8.634a1.385 1.385 0 0 0 1.903 0l14.364-13.814a1.26 1.26 0 0 0 0-1.83z"/>
        </symbol>

        <symbol id="add-contact" viewBox="0 0 40 40">
            <g transform="translate(7 7)" >
                <path d="M18.211 13.537v-2.811a.618.618 0 1 1 1.238 0v2.811h2.811a.618.618 0 1 1 0 1.238h-2.81v2.812a.618.618 0 1 1-1.239 0v-2.812H15.4a.618.618 0 1 1 0-1.238h2.812zm5.069 4.14v5.933A2.392 2.392 0 0 1 20.89 26H2.39A2.392 2.392 0 0 1 0 23.61V17.85a4.289 4.289 0 0 1 4.284-4.283h7.926a.619.619 0 1 1 0 1.238H4.284a3.05 3.05 0 0 0-3.046 3.045v5.759c0 .635.517 1.152 1.152 1.152h18.5c.636 0 1.152-.517 1.152-1.152v-5.932a.62.62 0 0 1 1.238 0zM11.803 1.239a5.016 5.016 0 0 1 5.012 5.01 5.016 5.016 0 0 1-5.012 5.011 5.016 5.016 0 0 1-5.01-5.01 5.016 5.016 0 0 1 5.01-5.01zm0 11.26a6.256 6.256 0 0 0 6.25-6.25A6.256 6.256 0 0 0 11.803 0a6.255 6.255 0 0 0-6.248 6.249 6.255 6.255 0 0 0 6.248 6.248z"/>
            </g>
        </symbol>

        <symbol id="pencil" viewBox="0 0 40 40">
            <g transform="translate(7 7)">
                <path d="M24.644 4.245L21.033.634a2.167 2.167 0 0 0-3.063 0L.636 17.968C-.022 18.626 0 20.222 0 20.222V26l5.778-.722a4.009 4.009 0 0 0 2.167-.723l16.7-17.247a2.167 2.167 0 0 0 0-3.063zM5.778 23.111L2.167 19.5 19.502 2.165l3.61 3.611L5.779 23.111z"/>
            </g>
        </symbol>

        <symbol id="user" viewBox="0 0 40 40">
            <g transform="translate(8 6)">
                <path d="M21.948 25.237a.764.764 0 0 1-.764.763H2.762A.763.763 0 0 1 2 25.237v-5.72c.01-.048.014-.095.017-.143a2.643 2.643 0 0 1 2.632-2.52H19.3a2.641 2.641 0 0 1 2.631 2.52c.003.047.01.093.018.138v5.725zm1.966-6.168a4.64 4.64 0 0 0-4.615-4.216H4.65A4.64 4.64 0 0 0 .034 19.07.984.984 0 0 0 0 19.33v5.907A2.766 2.766 0 0 0 2.762 28h18.422a2.767 2.767 0 0 0 2.764-2.763V19.33c0-.09-.012-.177-.034-.26zM12.136 2a4.61 4.61 0 0 1 4.607 4.605 4.612 4.612 0 0 1-4.607 4.606 4.611 4.611 0 0 1-4.605-4.606A4.61 4.61 0 0 1 12.136 2zm0 11.211a6.614 6.614 0 0 0 6.607-6.606A6.614 6.614 0 0 0 12.136 0a6.612 6.612 0 0 0-6.605 6.605 6.613 6.613 0 0 0 6.605 6.606z"/>
            </g>
        </symbol>
    </defs>
</svg>
