<svg version="1.1" xmlns="http://www.w3.org/2000/svg">
    <defs>
        <symbol id="book" viewBox="0 0 24 24">
            <path d="M20,16 L20,2 L5.71428571,2 C4.76751186,2 4,2.74619208 4,3.66666667 L4,16.4887338 C4.55927401,16.177375 5.20336737,16 5.88888889,16 L20,16 Z M20,18.2222222 L5.88888889,18.2222222 C4.96841431,18.2222222 4.22222222,18.9684143 4.22222222,19.8888889 C4.22222222,20.1313072 4.14458873,20.3555932 4.01282732,20.5382414 C4.11670987,21.3620472 4.83886827,22 5.71428571,22 L20,22 L20,18.2222222 Z M5.88888889,0 L20.8888889,0 C21.5025386,0 22,0.488416637 22,1.09090909 L22,22.9090909 C22,23.5115834 21.5025386,24 20.8888889,24 L5.88888889,24 C3.74111486,24 2,22.2905418 2,20.1818182 L2,3.81818182 C2,1.70945823 3.74111486,7.26691434e-16 5.88888889,0 Z"/>
        </symbol>

        <symbol id="report" viewBox="0 0 24 24">
            <path d="M22.3503861,20.513686 C22.3503861,21.3513863 21.7391841,22.028663 20.9804872,22.028663 L7.97333849,22.028663 C7.59055333,22.0264201 7.13542022,22.0234549 6.67752358,22.0168023 C6.33176272,22.01091 6.25133674,21.7735818 6.2399283,21.5857493 C6.25473801,21.2463887 6.33279019,20.7857599 6.3853328,20.5114811 C6.39876075,20.4471596 6.41116123,20.3835604 6.4230657,20.3177562 C6.42770702,20.2951753 6.43082485,20.2796651 6.43082485,20.2796651 C6.58604345,19.4378972 6.62636274,18.6405309 6.62636274,18.6405309 L6.62533527,18.6405309 C6.63203153,18.5210875 6.63514936,18.41647 6.63514936,18.3496014 C6.63514936,18.2838353 6.63514936,18.2490135 6.63514936,18.2490135 L6.63514936,3.33238979 C6.63514936,2.49875707 7.24755601,1.81669048 8.00469399,1.81669048 L20.9805226,1.81669048 C21.7374835,1.81669048 22.3497484,2.49875707 22.3497484,3.33238979 L22.3497484,20.513686 L22.3503861,20.513686 Z M22.3397913,0 L6.6165744,0 C5.69781083,0 4.95651642,0.811469819 4.95651642,1.80159558 L4.95651642,4.21458249 C4.94717395,4.4185817 4.88821848,4.7438406 4.60466715,4.742628 C4.60466715,4.742628 4.60466715,4.742628 4.60429044,4.742628 C3.98350628,4.73951567 3.08124271,4.73498864 1.97585588,4.73046161 C0.558475948,4.72338813 0.129852721,5.81298725 0,6.55861306 L0,19.6342471 C0,19.6342471 0.0426815008,20.903836 0.330414336,21.6609007 C0.473112946,21.9973154 0.653520455,22.3369638 0.878832066,22.6918909 C1.24205804,23.263792 1.79687988,23.5664562 2.25149625,23.7256702 L2.25040379,23.7256702 C2.25040379,23.7256702 2.46836951,23.9135014 4.09034188,24 L22.5127023,24 C23.3486645,23.9060642 24,23.1505759 24,22.2170784 L24,1.80159558 C23.9992466,0.811469819 23.2585172,0 22.3397913,0 Z M4.80686173,17.5909759 C4.80686173,18.0837043 4.67583123,19.407892 4.64981123,19.6675736 C4.63818032,19.7379583 4.6302713,19.8041713 4.61638068,19.8777293 L4.61734438,19.8770162 C4.61734438,19.8770162 4.49681494,20.6890429 4.29772702,21.260143 C4.21920177,21.5007487 4.05404287,21.5888544 3.96634582,21.6186627 C2.99978409,21.7982613 2.49613253,21.4335374 2.38301363,21.3343428 C2.24098363,21.1894017 2.08878488,20.9889801 1.94127173,20.6869749 C1.93592151,20.6772765 1.92964082,20.6693252 1.92495523,20.6592703 C1.91445418,20.6374132 1.90814026,20.6162693 1.89810444,20.5937348 C1.87338046,20.5399657 1.84852354,20.4917947 1.82409863,20.4321424 C1.81150402,20.4002304 1.80455871,20.3711352 1.79598507,20.3412913 C1.50497974,19.6238952 1.37394925,18.9647608 1.3766742,18.1686366 C1.37926623,17.2557038 1.40445546,8.82273459 1.40445546,8.82273459 C1.40445546,8.82273459 1.33722881,6.89139887 2.53614285,6.89938578 C3.55311626,6.90630302 4.26356538,6.9110096 4.45780155,6.91204362 L4.45876525,6.91204362 C4.49286043,6.91275674 4.51595609,6.91275674 4.51595609,6.91275674 L4.52419742,6.91275674 C4.62485462,6.92348915 4.80420323,6.99373121 4.80583156,7.36940143 L4.80516694,7.5828018 L4.80712758,7.5828018 L4.80686173,17.5909759 Z M9.07368478,6.32093065 L19.9396866,6.32093065 C19.9396866,6.32093065 20.7031317,6.25549084 20.6950701,6.92152988 C20.6950701,7.16578731 20.6774776,7.5221291 19.9155394,7.5221291 C19.1557484,7.5221291 9.07406149,7.5221291 9.07406149,7.5221291 C9.07406149,7.5221291 8.49595883,7.43583263 8.51411636,6.9207619 C8.52198965,6.63082999 8.67128072,6.32093065 9.07368478,6.32093065 Z M8.99793263,10.8075527 L19.8650646,10.8075527 C19.8650646,10.8075527 20.6285097,10.7419108 20.619657,11.408152 C20.619657,11.6522477 20.6021022,12.008347 19.840842,12.008347 C19.0810887,12.008347 8.99830934,12.008347 8.99830934,12.008347 C8.99830934,12.008347 8.42133682,11.9226568 8.43874093,11.407384 C8.44770668,11.1176946 8.59624433,10.8075527 8.99793263,10.8075527 Z M8.99793263,15.7387526 L19.8650646,15.7387526 C19.8650646,15.7387526 20.6285097,15.6735149 20.619657,16.3393519 C20.619657,16.5826796 20.6021022,16.9395873 19.840842,16.9395873 C19.0810887,16.9395873 8.99830934,16.9395873 8.99830934,16.9395873 C8.99830934,16.9395873 8.42133682,16.8538971 8.43874093,16.3393519 C8.44770668,16.0492987 8.59624433,15.7387526 8.99793263,15.7387526 Z"/>
        </symbol>

        <symbol id="exclamation" viewBox="0 0 24 24">
            <path d="M12,0 C18.6276104,0 24,5.233121 24,11.6883117 C24,18.1435024 18.6278354,23.3766234 12,23.3766234 C5.3728959,23.3766234 0,18.1435024 0,11.6883117 C0,5.233121 5.3728959,0 12,0 Z M11.9611986,5.24537979 C11.1045575,5.24537979 10.4563902,5.69243206 10.4563902,6.41452265 L10.4563902,13.0376028 C10.4563902,13.760446 11.1044739,14.205993 11.9611986,14.205993 C12.7969338,14.205993 13.466007,13.7417979 13.466007,13.0376028 L13.466007,6.41452265 C13.4659233,5.70957491 12.7969338,5.24537979 11.9611986,5.24537979 Z M11.9611986,15.6980906 C11.1381742,15.6980906 10.4683484,16.3679164 10.4683484,17.1916098 C10.4683484,18.0138815 11.1381742,18.6837073 11.9611986,18.6837073 C12.784223,18.6837073 13.4532962,18.0138815 13.4532962,17.1916098 C13.4532125,16.3678328 12.784223,15.6980906 11.9611986,15.6980906 Z"/>
        </symbol>

        <symbol id="add" viewBox="0 0 24 24">
            <path d="M13,11 L19,11 C19.5522847,11 20,11.4477153 20,12 C20,12.5522847 19.5522847,13 19,13 L13,13 L13,19 C13,19.5522847 12.5522847,20 12,20 C11.4477153,20 11,19.5522847 11,19 L11,13 L5,13 C4.44771525,13 4,12.5522847 4,12 C4,11.4477153 4.44771525,11 5,11 L11,11 L11,5 C11,4.44771525 11.4477153,4 12,4 C12.5522847,4 13,4.44771525 13,5 L13,11 Z"/>
        </symbol>

        <symbol id="trash" viewBox="0 0 24 24">
            <path d="M23.8466225,4.14043345 C23.7444704,4.04690236 23.6137206,3.99989054 23.4547908,3.99989054 L18.1875423,3.99989054 L16.9943753,1.39065236 C16.8239826,1.00514448 16.5171085,0.676992119 16.074171,0.406140543 C15.6308156,0.135343695 15.1817287,0 14.7273282,0 L9.27267156,0 C8.81827107,0 8.36930357,0.135343695 7.92612726,0.406140543 C7.48289126,0.676992119 7.1760769,1.00508975 7.00556477,1.39065236 L5.8123978,3.99989054 L0.545388053,3.99989054 C0.386159817,3.99989054 0.255648784,4.04690236 0.153317627,4.14043345 C0.051284985,4.23418345 0,4.35403897 0,4.49983581 L0,5.49994527 C0,5.64574212 0.0510461725,5.76559764 0.153317627,5.85918345 C0.255648784,5.95287872 0.386398629,5.99972636 0.545388053,5.99972636 L2.18161192,5.99972636 L2.18161192,20.8749453 C2.18161192,21.7398205 2.448664,22.4766309 2.98270846,23.0858691 C3.51687232,23.6954904 4.15891974,24 4.9089701,24 L19.09097,24 C19.8411995,24 20.4831872,23.6849825 21.0172913,23.0549475 C21.5513358,22.4244746 21.8182088,21.677211 21.8182088,20.8126642 L21.8182088,5.99972636 L23.4547311,5.99972636 C23.6136609,5.99972636 23.7444704,5.95287872 23.8465628,5.85918345 C23.9485357,5.76565236 23.9999998,5.64574212 23.9999998,5.49994527 L23.9999998,4.49983581 C24.0001192,4.35403897 23.9485954,4.23418345 23.8466225,4.14043345 Z M9.01708248,2.17151926 C9.09654734,2.07782399 9.1932067,2.02035902 9.30682175,1.99967163 L14.7101934,1.99967163 C14.8238085,2.0205232 14.920647,2.07793345 14.9999924,2.17151926 L15.8184626,3.99967163 L8.18183575,3.99967163 L9.01708248,2.17151926 Z M19.6365969,20.8127736 C19.6365969,21.0418673 19.596954,21.2529006 19.5172503,21.4454904 C19.4376063,21.6380254 19.3550369,21.7786778 19.2700197,21.8672285 C19.1845845,21.9559982 19.125359,22.0000547 19.0910297,22.0000547 L4.90902981,22.0000547 C4.87493932,22.0000547 4.81559442,21.9559982 4.73015924,21.8672285 C4.64484348,21.7786778 4.56239346,21.6380254 4.48280919,21.4454904 C4.40334433,21.2529006 4.36358205,21.0416484 4.36358205,20.8127736 L4.36358205,5.99972636 L19.6365969,5.99972636 L19.6365371,20.8127736 L19.6365969,20.8127736 Z M6.37498974,19.5 L7.12501026,19.5 C7.23449002,19.5 7.32443009,19.4508683 7.39458417,19.3524898 C7.46473824,19.2537666 7.5,19.1283227 7.5,18.9749512 L7.5,9.52476152 C7.5,9.37173481 7.46473824,9.24588859 7.39458417,9.14739524 C7.32422484,9.04918921 7.23453107,9 7.12501026,9 L6.37498974,9 C6.26550998,9 6.17573411,9.04913175 6.10541583,9.14739524 C6.03517966,9.24588859 6,9.37173481 6,9.52476152 L6,18.9749512 C6,19.1283227 6.03505651,19.2538241 6.10541583,19.3524898 C6.17573411,19.4508108 6.26550998,19.5 6.37498974,19.5 Z M10.8750103,19.5 L11.6250718,19.5 C11.7345165,19.5 11.8244205,19.4508683 11.8945373,19.3524898 C11.9650647,19.2537666 12,19.1283227 12,18.9749512 L12,9.52476152 C12,9.37173481 11.9650237,9.24588859 11.8945373,9.14739524 C11.8244205,9.04918921 11.7345165,9 11.6250718,9 L10.8750103,9 C10.7656477,9 10.6757437,9.04913175 10.6054216,9.14739524 C10.5350584,9.24588859 10.5,9.37173481 10.5,9.52476152 L10.5,18.9749512 C10.5,19.1283227 10.5350584,19.2538241 10.6054216,19.3524898 C10.6757027,19.4508108 10.7656477,19.5 10.8750103,19.5 Z M15.3751129,19.5 L16.1250924,19.5 C16.2346662,19.5 16.3245751,19.4508683 16.394819,19.3524898 C16.4650628,19.2537666 16.5,19.1283227 16.5,18.9749512 L16.5,9.52476152 C16.5,9.37173481 16.4650218,9.24588859 16.394819,9.14739524 C16.3245751,9.04918921 16.2346662,9 16.1250924,9 L15.3751129,9 C15.265498,9 15.1758765,9.04913175 15.1053453,9.14739524 C15.0351014,9.24588859 15,9.37173481 15,9.52476152 L15,18.9749512 C15,19.1283227 15.0351014,19.2538241 15.1053453,19.3524898 C15.1758765,19.4508108 15.265498,19.5 15.3751129,19.5 Z" />
        </symbol>

        <symbol id="clock" viewBox="0 0 24 24">
            <defs>
                <path id="clock-path" d="M12,24 C5.37272727,24 0,18.6272727 0,12 C0,5.37272727 5.37272727,0 12,0 C18.6272727,0 24,5.37272727 24,12 C24,18.6272727 18.6272727,24 12,24 Z M12,21.8181818 C15.5076986,21.8181819 18.7489457,19.946847 20.502795,16.909091 C22.2566443,13.8713349 22.2566443,10.1286651 20.502795,7.09090905 C18.7489457,4.053153 15.5076986,2.18181813 12,2.18181818 C6.57756799,2.1818183 2.18181839,6.57756799 2.18181839,12 C2.18181839,17.422432 6.57756799,21.8181817 12,21.8181818 Z M13.0909091,5.45454545 L13.0909091,11.5483636 L16.044,14.5014545 C16.4574242,14.9295042 16.4515117,15.6099107 16.0307112,16.0307112 C15.6099107,16.4515117 14.9295042,16.4574242 14.5014545,16.044 L11.2287273,12.7712727 C11.024128,12.5667352 10.9091527,12.2893034 10.9090909,12 L10.9090909,5.45454545 C10.9090909,4.852053 11.3975075,4.36363636 12,4.36363636 C12.6024925,4.36363636 13.0909091,4.852053 13.0909091,5.45454545 Z" />
            </defs>
            <g stroke="none" stroke-width="1" fill="none" fill-rule="evenodd">
                <g id="clock">
                    <g fill="#000000" fill-rule="nonzero">
                        <path id="clock-ghost" d="M12,24 C5.37272727,24 0,18.6272727 0,12 C0,5.37272727 5.37272727,0 12,0 C18.6272727,0 24,5.37272727 24,12 C24,18.6272727 18.6272727,24 12,24 Z M12,21.8181818 C15.5076986,21.8181819 18.7489457,19.946847 20.502795,16.909091 C22.2566443,13.8713349 22.2566443,10.1286651 20.502795,7.09090905 C18.7489457,4.053153 15.5076986,2.18181813 12,2.18181818 C6.57756799,2.1818183 2.18181839,6.57756799 2.18181839,12 C2.18181839,17.422432 6.57756799,21.8181817 12,21.8181818 Z M13.0909091,5.45454545 L13.0909091,11.5483636 L16.044,14.5014545 C16.4574242,14.9295042 16.4515117,15.6099107 16.0307112,16.0307112 C15.6099107,16.4515117 14.9295042,16.4574242 14.5014545,16.044 L11.2287273,12.7712727 C11.024128,12.5667352 10.9091527,12.2893034 10.9090909,12 L10.9090909,5.45454545 C10.9090909,4.852053 11.3975075,4.36363636 12,4.36363636 C12.6024925,4.36363636 13.0909091,4.852053 13.0909091,5.45454545 Z" />
                    </g>
                    <g>
                        <mask id="clock-mask" fill="white">
                            <use xlink:href="#clock-path"/>
                        </mask>
                        <g id="clock-ghost"/>
                        <g mask="url(#clock-mask)" fill="#383435" fill-rule="nonzero">
                            <g transform="translate(-1.090909, -1.090909)" >
                                <polygon points="0 0 26.1818182 0 26.1818182 26.1818182 0 26.1818182"/>
                            </g>
                        </g>
                    </g>
                </g>
            </g>
        </symbol>

        <symbol id="warning" viewBox="0 0 28 28">
            <g stroke="none" stroke-width="1" fill="none" fill-rule="evenodd">
            <g transform="translate(2.000000, 2.000000)">
                <path d="M12,23.8461538 C18.5424615,23.8461538 23.8461538,18.5424615 23.8461538,12 C23.8461538,5.45753846 18.5424615,0.153846154 12,0.153846154 C5.45753846,0.153846154 0.153846154,5.45753846 0.153846154,12 C0.153846154,18.5424615 5.45753846,23.8461538 12,23.8461538 Z" id="warning-path" stroke="#3E268F" stroke-width="3"/>
                <path d="M13.4590769,17.9572308 L13.4590769,11.8784615 C13.4590769,11.0390769 12.8058462,10.3584615 12,10.3584615 C11.1941538,10.3584615 10.5409231,11.0390769 10.5409231,11.8784615 L10.5409231,17.9569231 C10.5409231,18.7963077 11.1941538,19.4769231 12,19.4769231 C12.8058462,19.4769231 13.4590769,18.7963077 13.4590769,17.9569231 L13.4590769,17.9572308 Z M11.1135385,7.75753846 C11.4289916,8.08064823 11.8938194,8.20917491 12.3304543,8.09402031 C12.7670891,7.97886571 13.1080757,7.63781994 13.2231546,7.20116511 C13.3382334,6.76451028 13.209626,6.29970471 12.8864615,5.98430769 C12.3951113,5.50476742 11.6094669,5.50957964 11.1240278,5.99510292 C10.6385888,6.48062621 10.6339129,7.26627146 11.1135385,7.75753846 Z" id="warning-path" fill="#3E268F" fill-rule="nonzero"/>
            </g>
        </g>
        </symbol>

        <symbol id="calendar-check" viewBox="0 0 56 58">
            <path d="M49.424 39.416a1.733 1.733 0 0 0-2.474 0l-6.187 6.26-3.713-3.756a1.734 1.734 0 0 0-2.474 0 1.785 1.785 0 0 0 0 2.504l4.95 5.01a1.734 1.734 0 0 0 2.474 0l7.424-7.514a1.785 1.785 0 0 0 0-2.504zM28 28.699h7v-7.085h-7V28.7zM3.5 42.515V18.072H42v7.085h3.5V11.34c0-2.152-1.695-3.895-3.79-3.895h-1.46v1.771c0 1.95-1.569 3.542-3.5 3.542-1.93 0-3.5-1.591-3.5-3.542V7.446h-21v1.771c0 1.95-1.569 3.542-3.5 3.542-1.93 0-3.5-1.591-3.5-3.542V7.446H3.792C1.697 7.446 0 9.189 0 11.34v31.174c0 2.145 1.697 3.895 3.792 3.895H24.5v-3.543H3.792c-.158 0-.292-.166-.292-.352zm14-3.19h7v-7.084h-7v7.084zm0-10.626h7v-7.085h-7V28.7zM7 39.325h7v-7.084H7v7.084zM7 28.7h7v-7.085H7V28.7zm45.5 14.168c0-5.859-4.71-10.626-10.5-10.626s-10.5 4.767-10.5 10.626c0 5.86 4.71 10.627 10.5 10.627s10.5-4.767 10.5-10.627zm3.5 0c0 7.825-6.268 14.17-14 14.17-7.731 0-14-6.345-14-14.17 0-7.824 6.269-14.168 14-14.168 7.732 0 14 6.344 14 14.168zM36.75 10.988a1.76 1.76 0 0 0 1.75-1.77V2.132A1.76 1.76 0 0 0 36.75.36 1.76 1.76 0 0 0 35 2.133v7.084a1.76 1.76 0 0 0 1.75 1.771zM7 9.217V2.133C7 1.153 7.783.36 8.75.36s1.75.792 1.75 1.772v7.084a1.76 1.76 0 0 1-1.75 1.77A1.76 1.76 0 0 1 7 9.218z"/>
        </symbol>

        <!-- ICONOS CON PADDING -->
        <symbol id="calendar" viewBox="0 0 24 24">
            <g transform="translate(4 4)">
                <path id="a" d="M10.442 2.6H5.558v.643a.558.558 0 0 1-1.116 0V2.6H3.5A1.5 1.5 0 0 0 2 4.1v2.1h12V4.1a1.5 1.5 0 0 0-1.5-1.5h-.942v.643a.558.558 0 0 1-1.116 0V2.6zm1.116-1.2h.642a3 3 0 0 1 3 3v8.4a3 3 0 0 1-3 3H3.8a3 3 0 0 1-3-3V4.4a3 3 0 0 1 3-3h.642V.757a.558.558 0 0 1 1.116 0V1.4h4.884V.757a.558.558 0 0 1 1.116 0V1.4zM14 7.316H2V13.1a1.5 1.5 0 0 0 1.5 1.5h9a1.5 1.5 0 0 0 1.5-1.5V7.316z"/>
            </g>
        </symbol>

        <symbol id="navigation-arrow" viewBox="0 0 24 24">
            <path id="a" d="M15.428 20.228a.641.641 0 0 0 .906-.907l-6.84-6.84 6.84-6.602a.641.641 0 0 0-.906-.907L7.8 12.48l7.628 7.748z"/>
        </symbol>

        <symbol id="users" viewBox="0 0 24 24">
            <path d="M16.64 12.252c1.79 0 3.246 1.51 3.246 3.366v1.28c0 .445-.349.808-.778.808-.43 0-.779-.363-.779-.808v-1.28c0-.964-.758-1.75-1.688-1.75h-4.934c-.93 0-1.688.786-1.688 1.75v1.28c0 .445-.349.808-.778.808-.43 0-.779-.363-.779-.808v-1.28c0-1.856 1.456-3.366 3.245-3.366h4.934zm-2.7-.895c-1.855 0-3.364-1.415-3.364-3.156 0-1.74 1.51-3.155 3.364-3.155 1.857 0 3.367 1.415 3.367 3.155 0 1.741-1.51 3.156-3.367 3.156zm-1.75-3.156c0 .904.786 1.64 1.75 1.64.966 0 1.75-.736 1.75-1.64 0-.904-.784-1.64-1.75-1.64-.964 0-1.75.736-1.75 1.64zM8.664 12.4l-.1.084c-.446.367-.8.81-1.056 1.318l-.01.022-.024.005a1.894 1.894 0 0 0-1.606 1.875v1.304a.699.699 0 0 1-1.397 0v-1.304A3.309 3.309 0 0 1 7.776 12.4h.887zm1.515-.812c-1.85 0-3.354-1.478-3.354-3.294S8.328 5 10.178 5c.246 0 .503.033.786.1l.095.022-.077.06c-.427.333-.78.742-1.045 1.214l-.011.02-.024.004c-.946.134-1.66.939-1.66 1.874 0 .92.67 1.706 1.594 1.868l.024.004.01.021c.25.48.59.901 1.01 1.252l.074.062-.096.02c-.221.045-.45.067-.68.067z"/>
        </symbol>
    </defs>
</svg>
